<mxfile host="app.diagrams.net" agent="Mozilla/5.0 (Windows NT 10.0; Win64; x64) AppleWebKit/537.36 (KHTML, like Gecko) Chrome/131.0.0.0 Safari/537.36" version="26.0.4">
  <diagram name="Page-1" id="03018318-947c-dd8e-b7a3-06fadd420f32">
    <mxGraphModel dx="7000" dy="4330" grid="1" gridSize="10" guides="1" tooltips="1" connect="1" arrows="1" fold="1" page="1" pageScale="1" pageWidth="1100" pageHeight="850" background="#ffffff" math="0" shadow="0">
      <root>
        <mxCell id="0" />
        <mxCell id="1" parent="0" />
        <mxCell id="UpsgMlH7qFDsBHEWJ_tV-97" value="" style="whiteSpace=wrap;html=1;rounded=0;shadow=0;labelBackgroundColor=none;strokeColor=#000000;strokeWidth=1;fillColor=none;fontFamily=Verdana;fontSize=12;fontColor=#000000;align=center;comic=1;" parent="1" vertex="1">
          <mxGeometry x="2210" y="45" width="1060" height="810" as="geometry" />
        </mxCell>
        <mxCell id="677b7b8949515195-1" value="" style="whiteSpace=wrap;html=1;rounded=0;shadow=0;labelBackgroundColor=none;strokeColor=#000000;strokeWidth=1;fillColor=none;fontFamily=Verdana;fontSize=12;fontColor=#000000;align=center;comic=1;" parent="1" vertex="1">
          <mxGeometry x="20" y="40" width="1060" height="810" as="geometry" />
        </mxCell>
        <mxCell id="677b7b8949515195-2" value="LOGO" style="whiteSpace=wrap;html=1;rounded=0;shadow=0;labelBackgroundColor=none;strokeWidth=1;fontFamily=Verdana;fontSize=28;align=center;comic=1;" parent="1" vertex="1">
          <mxGeometry x="40" y="60" width="190" height="50" as="geometry" />
        </mxCell>
        <mxCell id="UpsgMlH7qFDsBHEWJ_tV-8" style="edgeStyle=orthogonalEdgeStyle;rounded=0;orthogonalLoop=1;jettySize=auto;html=1;" parent="1" source="677b7b8949515195-10" target="UpsgMlH7qFDsBHEWJ_tV-5" edge="1">
          <mxGeometry relative="1" as="geometry" />
        </mxCell>
        <mxCell id="677b7b8949515195-10" value="" style="whiteSpace=wrap;html=1;rounded=0;shadow=0;labelBackgroundColor=none;strokeWidth=1;fillColor=none;fontFamily=Verdana;fontSize=12;align=center;comic=1;" parent="1" vertex="1">
          <mxGeometry x="270" y="70" width="110" height="40" as="geometry" />
        </mxCell>
        <mxCell id="677b7b8949515195-11" value="Droppdown" style="text;html=1;points=[];align=left;verticalAlign=top;spacingTop=-4;fontSize=14;fontFamily=Verdana" parent="1" vertex="1">
          <mxGeometry x="280" y="80" width="90" height="20" as="geometry" />
        </mxCell>
        <mxCell id="UpsgMlH7qFDsBHEWJ_tV-1" value="Masterlayout" style="text;html=1;align=center;verticalAlign=middle;whiteSpace=wrap;rounded=0;fontStyle=1;fontSize=21;" parent="1" vertex="1">
          <mxGeometry x="460" width="140" height="40" as="geometry" />
        </mxCell>
        <mxCell id="UpsgMlH7qFDsBHEWJ_tV-5" value="&lt;h1 style=&quot;margin-top: 0px;&quot;&gt;Dropdown&lt;br&gt;&lt;/h1&gt;&lt;div&gt;Es soll die Möglichkeit geben, die einzelnen Viesw auswählen zu können, um so zwischen diesen zu navigieren&lt;/div&gt;" style="text;html=1;whiteSpace=wrap;overflow=hidden;rounded=0;" parent="1" vertex="1">
          <mxGeometry x="235" y="160" width="180" height="120" as="geometry" />
        </mxCell>
        <mxCell id="UpsgMlH7qFDsBHEWJ_tV-9" value="" style="whiteSpace=wrap;html=1;rounded=0;shadow=0;labelBackgroundColor=none;strokeColor=#000000;strokeWidth=1;fillColor=none;fontFamily=Verdana;fontSize=12;fontColor=#000000;align=center;comic=1;" parent="1" vertex="1">
          <mxGeometry x="1130" y="40" width="1060" height="810" as="geometry" />
        </mxCell>
        <mxCell id="UpsgMlH7qFDsBHEWJ_tV-11" value="Projektübersicht" style="text;html=1;align=center;verticalAlign=middle;whiteSpace=wrap;rounded=0;fontStyle=1;fontSize=21;" parent="1" vertex="1">
          <mxGeometry x="1560" width="180" height="40" as="geometry" />
        </mxCell>
        <mxCell id="UpsgMlH7qFDsBHEWJ_tV-12" value="" style="whiteSpace=wrap;html=1;rounded=0;shadow=0;labelBackgroundColor=none;strokeWidth=1;fillColor=none;fontFamily=Verdana;fontSize=12;align=center;comic=1;" parent="1" vertex="1">
          <mxGeometry x="1160" y="220" width="290" height="150" as="geometry" />
        </mxCell>
        <mxCell id="UpsgMlH7qFDsBHEWJ_tV-14" value="Projektbeschreibung" style="whiteSpace=wrap;html=1;rounded=0;shadow=0;labelBackgroundColor=none;strokeWidth=1;fillColor=none;fontFamily=Verdana;fontSize=12;align=center;comic=1;" parent="1" vertex="1">
          <mxGeometry x="1160" y="280" width="290" height="90" as="geometry" />
        </mxCell>
        <mxCell id="UpsgMlH7qFDsBHEWJ_tV-15" value="Projektname" style="whiteSpace=wrap;html=1;rounded=0;shadow=0;labelBackgroundColor=none;strokeWidth=1;fillColor=none;fontFamily=Verdana;fontSize=12;align=center;comic=1;" parent="1" vertex="1">
          <mxGeometry x="1250" y="230" width="100" height="40" as="geometry" />
        </mxCell>
        <mxCell id="UpsgMlH7qFDsBHEWJ_tV-44" value="" style="whiteSpace=wrap;html=1;rounded=0;shadow=0;labelBackgroundColor=none;strokeWidth=1;fillColor=none;fontFamily=Verdana;fontSize=12;align=center;comic=1;" parent="1" vertex="1">
          <mxGeometry x="1160" y="410" width="290" height="150" as="geometry" />
        </mxCell>
        <mxCell id="UpsgMlH7qFDsBHEWJ_tV-46" value="Projektbeschreibung" style="whiteSpace=wrap;html=1;rounded=0;shadow=0;labelBackgroundColor=none;strokeWidth=1;fillColor=none;fontFamily=Verdana;fontSize=12;align=center;comic=1;" parent="1" vertex="1">
          <mxGeometry x="1160" y="470" width="290" height="90" as="geometry" />
        </mxCell>
        <mxCell id="UpsgMlH7qFDsBHEWJ_tV-47" value="Projektname" style="whiteSpace=wrap;html=1;rounded=0;shadow=0;labelBackgroundColor=none;strokeWidth=1;fillColor=none;fontFamily=Verdana;fontSize=12;align=center;comic=1;" parent="1" vertex="1">
          <mxGeometry x="1250" y="420" width="100" height="40" as="geometry" />
        </mxCell>
        <mxCell id="vHGS4qTyj_NM40RGna0Z-17" style="edgeStyle=orthogonalEdgeStyle;rounded=0;orthogonalLoop=1;jettySize=auto;html=1;" parent="1" target="vHGS4qTyj_NM40RGna0Z-13" edge="1">
          <mxGeometry relative="1" as="geometry">
            <mxPoint x="1300.0588235294122" y="830" as="sourcePoint" />
            <Array as="points">
              <mxPoint x="1300" y="930" />
              <mxPoint x="1300" y="930" />
            </Array>
          </mxGeometry>
        </mxCell>
        <mxCell id="UpsgMlH7qFDsBHEWJ_tV-73" value="" style="whiteSpace=wrap;html=1;rounded=0;shadow=0;labelBackgroundColor=none;strokeWidth=1;fillColor=none;fontFamily=Verdana;fontSize=12;align=center;comic=1;" parent="1" vertex="1">
          <mxGeometry x="1490" y="220" width="290" height="150" as="geometry" />
        </mxCell>
        <mxCell id="UpsgMlH7qFDsBHEWJ_tV-74" value="Projektbeschreibung" style="whiteSpace=wrap;html=1;rounded=0;shadow=0;labelBackgroundColor=none;strokeWidth=1;fillColor=none;fontFamily=Verdana;fontSize=12;align=center;comic=1;" parent="1" vertex="1">
          <mxGeometry x="1490" y="280" width="290" height="90" as="geometry" />
        </mxCell>
        <mxCell id="UpsgMlH7qFDsBHEWJ_tV-75" value="Projektname" style="whiteSpace=wrap;html=1;rounded=0;shadow=0;labelBackgroundColor=none;strokeWidth=1;fillColor=none;fontFamily=Verdana;fontSize=12;align=center;comic=1;" parent="1" vertex="1">
          <mxGeometry x="1580" y="230" width="100" height="40" as="geometry" />
        </mxCell>
        <mxCell id="UpsgMlH7qFDsBHEWJ_tV-76" value="" style="whiteSpace=wrap;html=1;rounded=0;shadow=0;labelBackgroundColor=none;strokeWidth=1;fillColor=none;fontFamily=Verdana;fontSize=12;align=center;comic=1;" parent="1" vertex="1">
          <mxGeometry x="1835" y="220" width="290" height="150" as="geometry" />
        </mxCell>
        <mxCell id="UpsgMlH7qFDsBHEWJ_tV-77" value="Projektbeschreibung" style="whiteSpace=wrap;html=1;rounded=0;shadow=0;labelBackgroundColor=none;strokeWidth=1;fillColor=none;fontFamily=Verdana;fontSize=12;align=center;comic=1;" parent="1" vertex="1">
          <mxGeometry x="1835" y="280" width="290" height="90" as="geometry" />
        </mxCell>
        <mxCell id="UpsgMlH7qFDsBHEWJ_tV-78" value="Projektname" style="whiteSpace=wrap;html=1;rounded=0;shadow=0;labelBackgroundColor=none;strokeWidth=1;fillColor=none;fontFamily=Verdana;fontSize=12;align=center;comic=1;" parent="1" vertex="1">
          <mxGeometry x="1925" y="230" width="100" height="40" as="geometry" />
        </mxCell>
        <mxCell id="UpsgMlH7qFDsBHEWJ_tV-79" value="" style="whiteSpace=wrap;html=1;rounded=0;shadow=0;labelBackgroundColor=none;strokeWidth=1;fillColor=none;fontFamily=Verdana;fontSize=12;align=center;comic=1;" parent="1" vertex="1">
          <mxGeometry x="1490" y="410" width="290" height="150" as="geometry" />
        </mxCell>
        <mxCell id="UpsgMlH7qFDsBHEWJ_tV-80" value="Projektbeschreibung" style="whiteSpace=wrap;html=1;rounded=0;shadow=0;labelBackgroundColor=none;strokeWidth=1;fillColor=none;fontFamily=Verdana;fontSize=12;align=center;comic=1;" parent="1" vertex="1">
          <mxGeometry x="1490" y="470" width="290" height="90" as="geometry" />
        </mxCell>
        <mxCell id="UpsgMlH7qFDsBHEWJ_tV-81" value="Projektname" style="whiteSpace=wrap;html=1;rounded=0;shadow=0;labelBackgroundColor=none;strokeWidth=1;fillColor=none;fontFamily=Verdana;fontSize=12;align=center;comic=1;" parent="1" vertex="1">
          <mxGeometry x="1580" y="420" width="100" height="40" as="geometry" />
        </mxCell>
        <mxCell id="UpsgMlH7qFDsBHEWJ_tV-82" value="" style="whiteSpace=wrap;html=1;rounded=0;shadow=0;labelBackgroundColor=none;strokeWidth=1;fillColor=none;fontFamily=Verdana;fontSize=12;align=center;comic=1;" parent="1" vertex="1">
          <mxGeometry x="1835" y="420" width="290" height="150" as="geometry" />
        </mxCell>
        <mxCell id="UpsgMlH7qFDsBHEWJ_tV-83" value="Projektbeschreibung" style="whiteSpace=wrap;html=1;rounded=0;shadow=0;labelBackgroundColor=none;strokeWidth=1;fillColor=none;fontFamily=Verdana;fontSize=12;align=center;comic=1;" parent="1" vertex="1">
          <mxGeometry x="1835" y="480" width="290" height="90" as="geometry" />
        </mxCell>
        <mxCell id="UpsgMlH7qFDsBHEWJ_tV-84" value="Projektname" style="whiteSpace=wrap;html=1;rounded=0;shadow=0;labelBackgroundColor=none;strokeWidth=1;fillColor=none;fontFamily=Verdana;fontSize=12;align=center;comic=1;" parent="1" vertex="1">
          <mxGeometry x="1925" y="430" width="100" height="40" as="geometry" />
        </mxCell>
        <mxCell id="UpsgMlH7qFDsBHEWJ_tV-85" value="" style="whiteSpace=wrap;html=1;rounded=0;shadow=0;labelBackgroundColor=none;strokeWidth=1;fillColor=none;fontFamily=Verdana;fontSize=12;align=center;comic=1;" parent="1" vertex="1">
          <mxGeometry x="1160" y="610" width="290" height="150" as="geometry" />
        </mxCell>
        <mxCell id="UpsgMlH7qFDsBHEWJ_tV-86" value="Projektbeschreibung" style="whiteSpace=wrap;html=1;rounded=0;shadow=0;labelBackgroundColor=none;strokeWidth=1;fillColor=none;fontFamily=Verdana;fontSize=12;align=center;comic=1;" parent="1" vertex="1">
          <mxGeometry x="1160" y="670" width="290" height="90" as="geometry" />
        </mxCell>
        <mxCell id="UpsgMlH7qFDsBHEWJ_tV-87" value="Projektname" style="whiteSpace=wrap;html=1;rounded=0;shadow=0;labelBackgroundColor=none;strokeWidth=1;fillColor=none;fontFamily=Verdana;fontSize=12;align=center;comic=1;" parent="1" vertex="1">
          <mxGeometry x="1250" y="620" width="100" height="40" as="geometry" />
        </mxCell>
        <mxCell id="UpsgMlH7qFDsBHEWJ_tV-88" value="" style="whiteSpace=wrap;html=1;rounded=0;shadow=0;labelBackgroundColor=none;strokeWidth=1;fillColor=none;fontFamily=Verdana;fontSize=12;align=center;comic=1;" parent="1" vertex="1">
          <mxGeometry x="1490" y="610" width="290" height="150" as="geometry" />
        </mxCell>
        <mxCell id="UpsgMlH7qFDsBHEWJ_tV-89" value="Projektbeschreibung" style="whiteSpace=wrap;html=1;rounded=0;shadow=0;labelBackgroundColor=none;strokeWidth=1;fillColor=none;fontFamily=Verdana;fontSize=12;align=center;comic=1;" parent="1" vertex="1">
          <mxGeometry x="1490" y="670" width="290" height="90" as="geometry" />
        </mxCell>
        <mxCell id="UpsgMlH7qFDsBHEWJ_tV-90" value="Projektname" style="whiteSpace=wrap;html=1;rounded=0;shadow=0;labelBackgroundColor=none;strokeWidth=1;fillColor=none;fontFamily=Verdana;fontSize=12;align=center;comic=1;" parent="1" vertex="1">
          <mxGeometry x="1580" y="620" width="100" height="40" as="geometry" />
        </mxCell>
        <mxCell id="UpsgMlH7qFDsBHEWJ_tV-91" value="" style="whiteSpace=wrap;html=1;rounded=0;shadow=0;labelBackgroundColor=none;strokeWidth=1;fillColor=none;fontFamily=Verdana;fontSize=12;align=center;comic=1;" parent="1" vertex="1">
          <mxGeometry x="1835" y="610" width="290" height="150" as="geometry" />
        </mxCell>
        <mxCell id="UpsgMlH7qFDsBHEWJ_tV-92" value="Projektbeschreibung" style="whiteSpace=wrap;html=1;rounded=0;shadow=0;labelBackgroundColor=none;strokeWidth=1;fillColor=none;fontFamily=Verdana;fontSize=12;align=center;comic=1;" parent="1" vertex="1">
          <mxGeometry x="1835" y="670" width="290" height="90" as="geometry" />
        </mxCell>
        <mxCell id="UpsgMlH7qFDsBHEWJ_tV-93" value="Projektname" style="whiteSpace=wrap;html=1;rounded=0;shadow=0;labelBackgroundColor=none;strokeWidth=1;fillColor=none;fontFamily=Verdana;fontSize=12;align=center;comic=1;" parent="1" vertex="1">
          <mxGeometry x="1925" y="620" width="100" height="40" as="geometry" />
        </mxCell>
        <mxCell id="UpsgMlH7qFDsBHEWJ_tV-94" value="Next Project" style="whiteSpace=wrap;html=1;rounded=0;shadow=0;labelBackgroundColor=none;strokeWidth=1;fillColor=none;fontFamily=Verdana;fontSize=12;align=center;comic=1;" parent="1" vertex="1">
          <mxGeometry x="1932.5" y="160" width="85" height="30" as="geometry" />
        </mxCell>
        <mxCell id="UpsgMlH7qFDsBHEWJ_tV-95" value="Add Projet" style="whiteSpace=wrap;html=1;rounded=0;shadow=0;labelBackgroundColor=none;strokeWidth=1;fillColor=none;fontFamily=Verdana;fontSize=12;align=center;comic=1;" parent="1" vertex="1">
          <mxGeometry x="1252.5" y="160" width="85" height="30" as="geometry" />
        </mxCell>
        <mxCell id="UpsgMlH7qFDsBHEWJ_tV-96" value="Delete Projet" style="whiteSpace=wrap;html=1;rounded=0;shadow=0;labelBackgroundColor=none;strokeWidth=1;fillColor=none;fontFamily=Verdana;fontSize=12;align=center;comic=1;" parent="1" vertex="1">
          <mxGeometry x="1470" y="160" width="85" height="30" as="geometry" />
        </mxCell>
        <mxCell id="UpsgMlH7qFDsBHEWJ_tV-98" value="" style="endArrow=none;dashed=1;html=1;dashPattern=1 3;strokeWidth=2;rounded=0;entryX=0;entryY=0.129;entryDx=0;entryDy=0;entryPerimeter=0;exitX=1.003;exitY=0.13;exitDx=0;exitDy=0;exitPerimeter=0;" parent="1" source="677b7b8949515195-1" target="677b7b8949515195-1" edge="1">
          <mxGeometry width="50" height="50" relative="1" as="geometry">
            <mxPoint x="580" y="230" as="sourcePoint" />
            <mxPoint x="630" y="180" as="targetPoint" />
          </mxGeometry>
        </mxCell>
        <mxCell id="UpsgMlH7qFDsBHEWJ_tV-99" value="" style="endArrow=none;dashed=1;html=1;dashPattern=1 3;strokeWidth=2;rounded=0;entryX=0;entryY=0.129;entryDx=0;entryDy=0;entryPerimeter=0;exitX=1.003;exitY=0.13;exitDx=0;exitDy=0;exitPerimeter=0;" parent="1" edge="1">
          <mxGeometry width="50" height="50" relative="1" as="geometry">
            <mxPoint x="2191.5" y="141" as="sourcePoint" />
            <mxPoint x="1128.5" y="140" as="targetPoint" />
          </mxGeometry>
        </mxCell>
        <mxCell id="UpsgMlH7qFDsBHEWJ_tV-100" value="" style="endArrow=none;dashed=1;html=1;dashPattern=1 3;strokeWidth=2;rounded=0;entryX=0;entryY=0.129;entryDx=0;entryDy=0;entryPerimeter=0;exitX=1.003;exitY=0.13;exitDx=0;exitDy=0;exitPerimeter=0;" parent="1" edge="1">
          <mxGeometry width="50" height="50" relative="1" as="geometry">
            <mxPoint x="3271.5" y="141" as="sourcePoint" />
            <mxPoint x="2208.5" y="140" as="targetPoint" />
          </mxGeometry>
        </mxCell>
        <mxCell id="UpsgMlH7qFDsBHEWJ_tV-101" value="Taskübersicht" style="text;html=1;align=center;verticalAlign=middle;whiteSpace=wrap;rounded=0;fontStyle=1;fontSize=21;" parent="1" vertex="1">
          <mxGeometry x="2650" y="5" width="180" height="40" as="geometry" />
        </mxCell>
        <mxCell id="vZuUsM0mdZmm9Xbh7R97-23" style="edgeStyle=orthogonalEdgeStyle;rounded=0;orthogonalLoop=1;jettySize=auto;html=1;" parent="1" source="UpsgMlH7qFDsBHEWJ_tV-102" target="vZuUsM0mdZmm9Xbh7R97-5" edge="1">
          <mxGeometry relative="1" as="geometry" />
        </mxCell>
        <mxCell id="UpsgMlH7qFDsBHEWJ_tV-102" value="" style="whiteSpace=wrap;html=1;rounded=0;shadow=0;labelBackgroundColor=none;strokeWidth=1;fillColor=none;fontFamily=Verdana;fontSize=12;align=center;comic=1;" parent="1" vertex="1">
          <mxGeometry x="2240" y="230" width="290" height="260" as="geometry" />
        </mxCell>
        <mxCell id="UpsgMlH7qFDsBHEWJ_tV-103" value="Taskbeschreibung" style="whiteSpace=wrap;html=1;rounded=0;shadow=0;labelBackgroundColor=none;strokeWidth=1;fillColor=none;fontFamily=Verdana;fontSize=12;align=center;comic=1;" parent="1" vertex="1">
          <mxGeometry x="2240" y="330" width="290" height="90" as="geometry" />
        </mxCell>
        <mxCell id="UpsgMlH7qFDsBHEWJ_tV-104" value="Taskname" style="whiteSpace=wrap;html=1;rounded=0;shadow=0;labelBackgroundColor=none;strokeWidth=1;fillColor=none;fontFamily=Verdana;fontSize=12;align=center;comic=1;" parent="1" vertex="1">
          <mxGeometry x="2330" y="230" width="100" height="40" as="geometry" />
        </mxCell>
        <mxCell id="UpsgMlH7qFDsBHEWJ_tV-105" value="Startdatum" style="whiteSpace=wrap;html=1;rounded=0;shadow=0;labelBackgroundColor=none;strokeWidth=1;fillColor=none;fontFamily=Verdana;fontSize=12;align=center;comic=1;" parent="1" vertex="1">
          <mxGeometry x="2240" y="280" width="80" height="30" as="geometry" />
        </mxCell>
        <mxCell id="UpsgMlH7qFDsBHEWJ_tV-106" value="Enddatum" style="whiteSpace=wrap;html=1;rounded=0;shadow=0;labelBackgroundColor=none;strokeWidth=1;fillColor=none;fontFamily=Verdana;fontSize=12;align=center;comic=1;" parent="1" vertex="1">
          <mxGeometry x="2450" y="280" width="80" height="30" as="geometry" />
        </mxCell>
        <mxCell id="UpsgMlH7qFDsBHEWJ_tV-107" value="Zugewiesen" style="whiteSpace=wrap;html=1;rounded=0;shadow=0;labelBackgroundColor=none;strokeWidth=1;fillColor=none;fontFamily=Verdana;fontSize=12;align=center;comic=1;" parent="1" vertex="1">
          <mxGeometry x="2340" y="280" width="80" height="30" as="geometry" />
        </mxCell>
        <mxCell id="vZuUsM0mdZmm9Xbh7R97-2" style="edgeStyle=orthogonalEdgeStyle;rounded=0;orthogonalLoop=1;jettySize=auto;html=1;" parent="1" source="vZuUsM0mdZmm9Xbh7R97-1" target="UpsgMlH7qFDsBHEWJ_tV-107" edge="1">
          <mxGeometry relative="1" as="geometry">
            <Array as="points">
              <mxPoint x="2200" y="-20" />
              <mxPoint x="2200" y="320" />
            </Array>
          </mxGeometry>
        </mxCell>
        <mxCell id="vZuUsM0mdZmm9Xbh7R97-1" value="Dropdown, welches alle Mitarbeiter anzeigt, welche an der Task arbeiten" style="text;html=1;align=center;verticalAlign=middle;whiteSpace=wrap;rounded=0;" parent="1" vertex="1">
          <mxGeometry x="2220" y="-70" width="80" height="100" as="geometry" />
        </mxCell>
        <mxCell id="vZuUsM0mdZmm9Xbh7R97-4" value="Subtask" style="whiteSpace=wrap;html=1;rounded=0;shadow=0;labelBackgroundColor=none;strokeWidth=1;fillColor=none;fontFamily=Verdana;fontSize=12;align=center;comic=1;" parent="1" vertex="1">
          <mxGeometry x="2240" y="420" width="290" height="70" as="geometry" />
        </mxCell>
        <mxCell id="vZuUsM0mdZmm9Xbh7R97-5" value="" style="whiteSpace=wrap;html=1;rounded=0;shadow=0;labelBackgroundColor=none;strokeWidth=1;fillColor=none;fontFamily=Verdana;fontSize=12;align=center;comic=1;" parent="1" vertex="1">
          <mxGeometry x="2240" y="520" width="290" height="260" as="geometry" />
        </mxCell>
        <mxCell id="vZuUsM0mdZmm9Xbh7R97-6" value="Taskbeschreibung" style="whiteSpace=wrap;html=1;rounded=0;shadow=0;labelBackgroundColor=none;strokeWidth=1;fillColor=none;fontFamily=Verdana;fontSize=12;align=center;comic=1;" parent="1" vertex="1">
          <mxGeometry x="2240" y="620" width="290" height="90" as="geometry" />
        </mxCell>
        <mxCell id="vZuUsM0mdZmm9Xbh7R97-7" value="Sub-Task_name" style="whiteSpace=wrap;html=1;rounded=0;shadow=0;labelBackgroundColor=none;strokeWidth=1;fillColor=none;fontFamily=Verdana;fontSize=12;align=center;comic=1;" parent="1" vertex="1">
          <mxGeometry x="2340" y="520" width="100" height="40" as="geometry" />
        </mxCell>
        <mxCell id="vZuUsM0mdZmm9Xbh7R97-8" value="Startdatum" style="whiteSpace=wrap;html=1;rounded=0;shadow=0;labelBackgroundColor=none;strokeWidth=1;fillColor=none;fontFamily=Verdana;fontSize=12;align=center;comic=1;" parent="1" vertex="1">
          <mxGeometry x="2240" y="570" width="80" height="30" as="geometry" />
        </mxCell>
        <mxCell id="vZuUsM0mdZmm9Xbh7R97-9" value="Enddatum" style="whiteSpace=wrap;html=1;rounded=0;shadow=0;labelBackgroundColor=none;strokeWidth=1;fillColor=none;fontFamily=Verdana;fontSize=12;align=center;comic=1;" parent="1" vertex="1">
          <mxGeometry x="2450" y="570" width="80" height="30" as="geometry" />
        </mxCell>
        <mxCell id="vZuUsM0mdZmm9Xbh7R97-10" value="Parent-Task" style="whiteSpace=wrap;html=1;rounded=0;shadow=0;labelBackgroundColor=none;strokeWidth=1;fillColor=none;fontFamily=Verdana;fontSize=12;align=center;comic=1;" parent="1" vertex="1">
          <mxGeometry x="2240" y="710" width="290" height="70" as="geometry" />
        </mxCell>
        <mxCell id="vZuUsM0mdZmm9Xbh7R97-11" value="Zugewiesen" style="whiteSpace=wrap;html=1;rounded=0;shadow=0;labelBackgroundColor=none;strokeWidth=1;fillColor=none;fontFamily=Verdana;fontSize=12;align=center;comic=1;" parent="1" vertex="1">
          <mxGeometry x="2345" y="570" width="80" height="30" as="geometry" />
        </mxCell>
        <mxCell id="vZuUsM0mdZmm9Xbh7R97-13" style="edgeStyle=orthogonalEdgeStyle;rounded=0;orthogonalLoop=1;jettySize=auto;html=1;exitX=0.75;exitY=1;exitDx=0;exitDy=0;entryX=0.5;entryY=1;entryDx=0;entryDy=0;" parent="1" source="vZuUsM0mdZmm9Xbh7R97-11" target="vZuUsM0mdZmm9Xbh7R97-11" edge="1">
          <mxGeometry relative="1" as="geometry" />
        </mxCell>
        <mxCell id="vZuUsM0mdZmm9Xbh7R97-14" value="" style="whiteSpace=wrap;html=1;rounded=0;shadow=0;labelBackgroundColor=none;strokeWidth=1;fillColor=none;fontFamily=Verdana;fontSize=12;align=center;comic=1;" parent="1" vertex="1">
          <mxGeometry x="2605" y="230" width="290" height="260" as="geometry" />
        </mxCell>
        <mxCell id="vZuUsM0mdZmm9Xbh7R97-15" value="Taskbeschreibung" style="whiteSpace=wrap;html=1;rounded=0;shadow=0;labelBackgroundColor=none;strokeWidth=1;fillColor=none;fontFamily=Verdana;fontSize=12;align=center;comic=1;" parent="1" vertex="1">
          <mxGeometry x="2605" y="330" width="290" height="90" as="geometry" />
        </mxCell>
        <mxCell id="vZuUsM0mdZmm9Xbh7R97-16" value="Taskname" style="whiteSpace=wrap;html=1;rounded=0;shadow=0;labelBackgroundColor=none;strokeWidth=1;fillColor=none;fontFamily=Verdana;fontSize=12;align=center;comic=1;" parent="1" vertex="1">
          <mxGeometry x="2695" y="230" width="100" height="40" as="geometry" />
        </mxCell>
        <mxCell id="vZuUsM0mdZmm9Xbh7R97-17" value="Startdatum" style="whiteSpace=wrap;html=1;rounded=0;shadow=0;labelBackgroundColor=none;strokeWidth=1;fillColor=none;fontFamily=Verdana;fontSize=12;align=center;comic=1;" parent="1" vertex="1">
          <mxGeometry x="2605" y="280" width="80" height="30" as="geometry" />
        </mxCell>
        <mxCell id="vZuUsM0mdZmm9Xbh7R97-18" value="Enddatum" style="whiteSpace=wrap;html=1;rounded=0;shadow=0;labelBackgroundColor=none;strokeWidth=1;fillColor=none;fontFamily=Verdana;fontSize=12;align=center;comic=1;" parent="1" vertex="1">
          <mxGeometry x="2815" y="280" width="80" height="30" as="geometry" />
        </mxCell>
        <mxCell id="vZuUsM0mdZmm9Xbh7R97-19" value="Zugewiesen" style="whiteSpace=wrap;html=1;rounded=0;shadow=0;labelBackgroundColor=none;strokeWidth=1;fillColor=none;fontFamily=Verdana;fontSize=12;align=center;comic=1;" parent="1" vertex="1">
          <mxGeometry x="2705" y="280" width="80" height="30" as="geometry" />
        </mxCell>
        <mxCell id="vZuUsM0mdZmm9Xbh7R97-24" style="edgeStyle=orthogonalEdgeStyle;rounded=0;orthogonalLoop=1;jettySize=auto;html=1;" parent="1" source="vZuUsM0mdZmm9Xbh7R97-20" target="vZuUsM0mdZmm9Xbh7R97-5" edge="1">
          <mxGeometry relative="1" as="geometry">
            <Array as="points">
              <mxPoint x="2750" y="650" />
            </Array>
          </mxGeometry>
        </mxCell>
        <mxCell id="vZuUsM0mdZmm9Xbh7R97-20" value="Subtask-Name" style="whiteSpace=wrap;html=1;rounded=0;shadow=0;labelBackgroundColor=none;strokeWidth=1;fillColor=none;fontFamily=Verdana;fontSize=12;align=center;comic=1;" parent="1" vertex="1">
          <mxGeometry x="2605" y="450" width="290" height="40" as="geometry" />
        </mxCell>
        <mxCell id="vZuUsM0mdZmm9Xbh7R97-22" style="edgeStyle=orthogonalEdgeStyle;rounded=0;orthogonalLoop=1;jettySize=auto;html=1;" parent="1" source="vZuUsM0mdZmm9Xbh7R97-21" target="UpsgMlH7qFDsBHEWJ_tV-102" edge="1">
          <mxGeometry relative="1" as="geometry" />
        </mxCell>
        <mxCell id="vZuUsM0mdZmm9Xbh7R97-21" value="Parenttask-Name" style="whiteSpace=wrap;html=1;rounded=0;shadow=0;labelBackgroundColor=none;strokeWidth=1;fillColor=none;fontFamily=Verdana;fontSize=12;align=center;comic=1;" parent="1" vertex="1">
          <mxGeometry x="2605" y="420" width="290" height="30" as="geometry" />
        </mxCell>
        <mxCell id="vZuUsM0mdZmm9Xbh7R97-28" value="" style="endArrow=classic;html=1;rounded=0;" parent="1" source="vZuUsM0mdZmm9Xbh7R97-20" target="vZuUsM0mdZmm9Xbh7R97-21" edge="1">
          <mxGeometry width="50" height="50" relative="1" as="geometry">
            <mxPoint x="2980" y="500" as="sourcePoint" />
            <mxPoint x="3030" y="450" as="targetPoint" />
            <Array as="points">
              <mxPoint x="2940" y="480" />
              <mxPoint x="2990" y="450" />
              <mxPoint x="2950" y="430" />
            </Array>
          </mxGeometry>
        </mxCell>
        <mxCell id="vHGS4qTyj_NM40RGna0Z-67" style="edgeStyle=orthogonalEdgeStyle;rounded=0;orthogonalLoop=1;jettySize=auto;html=1;exitX=0.5;exitY=1;exitDx=0;exitDy=0;" parent="1" source="vHGS4qTyj_NM40RGna0Z-36" target="vHGS4qTyj_NM40RGna0Z-38" edge="1">
          <mxGeometry relative="1" as="geometry">
            <Array as="points">
              <mxPoint x="1270" y="1690" />
              <mxPoint x="2260" y="1690" />
              <mxPoint x="2260" y="1080" />
            </Array>
          </mxGeometry>
        </mxCell>
        <mxCell id="vHGS4qTyj_NM40RGna0Z-13" value="" style="whiteSpace=wrap;html=1;rounded=0;shadow=0;labelBackgroundColor=none;strokeColor=#000000;strokeWidth=1;fillColor=none;fontFamily=Verdana;fontSize=12;fontColor=#000000;align=center;comic=1;" parent="1" vertex="1">
          <mxGeometry x="1138.5" y="960" width="1060" height="810" as="geometry" />
        </mxCell>
        <mxCell id="vHGS4qTyj_NM40RGna0Z-14" value="" style="endArrow=none;dashed=1;html=1;dashPattern=1 3;strokeWidth=2;rounded=0;entryX=0;entryY=0.129;entryDx=0;entryDy=0;entryPerimeter=0;exitX=1.003;exitY=0.13;exitDx=0;exitDy=0;exitPerimeter=0;" parent="1" edge="1">
          <mxGeometry width="50" height="50" relative="1" as="geometry">
            <mxPoint x="2200" y="1061" as="sourcePoint" />
            <mxPoint x="1137" y="1060" as="targetPoint" />
          </mxGeometry>
        </mxCell>
        <mxCell id="vHGS4qTyj_NM40RGna0Z-16" value="Projekt erstellen" style="text;html=1;align=center;verticalAlign=middle;whiteSpace=wrap;rounded=0;fontStyle=1;fontSize=21;" parent="1" vertex="1">
          <mxGeometry x="1578.5" y="920" width="180" height="40" as="geometry" />
        </mxCell>
        <mxCell id="vHGS4qTyj_NM40RGna0Z-18" value="Projektname:" style="whiteSpace=wrap;html=1;rounded=0;shadow=0;labelBackgroundColor=none;strokeWidth=1;fillColor=none;fontFamily=Verdana;fontSize=12;align=center;comic=1;" parent="1" vertex="1">
          <mxGeometry x="1190" y="1120" width="160" height="40" as="geometry" />
        </mxCell>
        <mxCell id="vHGS4qTyj_NM40RGna0Z-20" value="Textfeld" style="whiteSpace=wrap;html=1;rounded=0;shadow=0;labelBackgroundColor=none;strokeWidth=1;fillColor=none;fontFamily=Verdana;fontSize=12;align=center;comic=1;" parent="1" vertex="1">
          <mxGeometry x="1390" y="1120" width="670" height="40" as="geometry" />
        </mxCell>
        <mxCell id="vHGS4qTyj_NM40RGna0Z-21" value="Projektbeschreibung:" style="whiteSpace=wrap;html=1;rounded=0;shadow=0;labelBackgroundColor=none;strokeWidth=1;fillColor=none;fontFamily=Verdana;fontSize=12;align=center;comic=1;" parent="1" vertex="1">
          <mxGeometry x="1190" y="1180" width="160" height="40" as="geometry" />
        </mxCell>
        <mxCell id="vHGS4qTyj_NM40RGna0Z-22" value="Textfeld" style="whiteSpace=wrap;html=1;rounded=0;shadow=0;labelBackgroundColor=none;strokeWidth=1;fillColor=none;fontFamily=Verdana;fontSize=12;align=center;comic=1;" parent="1" vertex="1">
          <mxGeometry x="1390" y="1180" width="670" height="340" as="geometry" />
        </mxCell>
        <mxCell id="vHGS4qTyj_NM40RGna0Z-45" style="edgeStyle=orthogonalEdgeStyle;rounded=0;orthogonalLoop=1;jettySize=auto;html=1;exitX=0.5;exitY=1;exitDx=0;exitDy=0;" parent="1" source="vHGS4qTyj_NM40RGna0Z-34" target="vHGS4qTyj_NM40RGna0Z-40" edge="1">
          <mxGeometry relative="1" as="geometry" />
        </mxCell>
        <mxCell id="vHGS4qTyj_NM40RGna0Z-25" value="" style="whiteSpace=wrap;html=1;rounded=0;shadow=0;labelBackgroundColor=none;strokeColor=#000000;strokeWidth=1;fillColor=none;fontFamily=Verdana;fontSize=12;fontColor=#000000;align=center;comic=1;" parent="1" vertex="1">
          <mxGeometry x="1140" y="1820" width="1060" height="810" as="geometry" />
        </mxCell>
        <mxCell id="vHGS4qTyj_NM40RGna0Z-26" value="" style="endArrow=none;dashed=1;html=1;dashPattern=1 3;strokeWidth=2;rounded=0;entryX=0;entryY=0.129;entryDx=0;entryDy=0;entryPerimeter=0;exitX=1.003;exitY=0.13;exitDx=0;exitDy=0;exitPerimeter=0;" parent="1" edge="1">
          <mxGeometry width="50" height="50" relative="1" as="geometry">
            <mxPoint x="2201.5" y="1921" as="sourcePoint" />
            <mxPoint x="1138.5" y="1920" as="targetPoint" />
          </mxGeometry>
        </mxCell>
        <mxCell id="vHGS4qTyj_NM40RGna0Z-29" value="" style="whiteSpace=wrap;html=1;rounded=0;shadow=0;labelBackgroundColor=none;strokeWidth=1;fillColor=none;fontFamily=Verdana;fontSize=12;align=center;comic=1;" parent="1" vertex="1">
          <mxGeometry x="1525" y="1990" width="290" height="150" as="geometry" />
        </mxCell>
        <mxCell id="vHGS4qTyj_NM40RGna0Z-30" value="Projektbeschreibung" style="whiteSpace=wrap;html=1;rounded=0;shadow=0;labelBackgroundColor=none;strokeWidth=1;fillColor=none;fontFamily=Verdana;fontSize=12;align=center;comic=1;" parent="1" vertex="1">
          <mxGeometry x="1525" y="2050" width="290" height="90" as="geometry" />
        </mxCell>
        <mxCell id="vHGS4qTyj_NM40RGna0Z-31" value="Projektname" style="whiteSpace=wrap;html=1;rounded=0;shadow=0;labelBackgroundColor=none;strokeWidth=1;fillColor=none;fontFamily=Verdana;fontSize=12;align=center;comic=1;" parent="1" vertex="1">
          <mxGeometry x="1615" y="2000" width="100" height="40" as="geometry" />
        </mxCell>
        <mxCell id="vHGS4qTyj_NM40RGna0Z-32" value="Wollen Sie das oben gezeigte Projekt löschen?&lt;br&gt;Diese Aktion kann nicht rückgängig gemacht werden!" style="whiteSpace=wrap;html=1;rounded=0;shadow=0;labelBackgroundColor=none;strokeWidth=1;fillColor=none;fontFamily=Verdana;fontSize=12;align=center;comic=1;" parent="1" vertex="1">
          <mxGeometry x="1520" y="2180" width="290" height="120" as="geometry" />
        </mxCell>
        <mxCell id="vHGS4qTyj_NM40RGna0Z-34" value="Ja" style="whiteSpace=wrap;html=1;rounded=0;shadow=0;labelBackgroundColor=none;strokeWidth=1;fillColor=#d5e8d4;fontFamily=Verdana;fontSize=12;align=center;comic=1;strokeColor=#82b366;" parent="1" vertex="1">
          <mxGeometry x="1495" y="2340" width="120" height="40" as="geometry" />
        </mxCell>
        <mxCell id="d6Erp2eyZHGO9Y9gUzmG-6" style="edgeStyle=orthogonalEdgeStyle;rounded=0;orthogonalLoop=1;jettySize=auto;html=1;" edge="1" parent="1" source="vHGS4qTyj_NM40RGna0Z-35" target="UpsgMlH7qFDsBHEWJ_tV-9">
          <mxGeometry relative="1" as="geometry">
            <Array as="points">
              <mxPoint x="1800" y="2440" />
              <mxPoint x="1120" y="2440" />
              <mxPoint x="1120" y="445" />
            </Array>
          </mxGeometry>
        </mxCell>
        <mxCell id="vHGS4qTyj_NM40RGna0Z-35" value="Nein" style="whiteSpace=wrap;html=1;rounded=0;shadow=0;labelBackgroundColor=none;strokeWidth=1;fillColor=#f8cecc;fontFamily=Verdana;fontSize=12;align=center;comic=1;strokeColor=#b85450;" parent="1" vertex="1">
          <mxGeometry x="1740" y="2340" width="120" height="40" as="geometry" />
        </mxCell>
        <mxCell id="vHGS4qTyj_NM40RGna0Z-36" value="Add Projet" style="whiteSpace=wrap;html=1;rounded=0;shadow=0;labelBackgroundColor=none;strokeWidth=1;fillColor=none;fontFamily=Verdana;fontSize=12;align=center;comic=1;" parent="1" vertex="1">
          <mxGeometry x="1227.5" y="1640" width="85" height="30" as="geometry" />
        </mxCell>
        <mxCell id="d6Erp2eyZHGO9Y9gUzmG-8" style="edgeStyle=orthogonalEdgeStyle;rounded=0;orthogonalLoop=1;jettySize=auto;html=1;" edge="1" parent="1" source="vHGS4qTyj_NM40RGna0Z-37" target="UpsgMlH7qFDsBHEWJ_tV-9">
          <mxGeometry relative="1" as="geometry">
            <Array as="points">
              <mxPoint x="2210" y="1655" />
              <mxPoint x="2210" y="900" />
              <mxPoint x="1660" y="900" />
            </Array>
          </mxGeometry>
        </mxCell>
        <mxCell id="vHGS4qTyj_NM40RGna0Z-37" value="Cancel" style="whiteSpace=wrap;html=1;rounded=0;shadow=0;labelBackgroundColor=none;strokeWidth=1;fillColor=none;fontFamily=Verdana;fontSize=12;align=center;comic=1;" parent="1" vertex="1">
          <mxGeometry x="1975" y="1640" width="85" height="30" as="geometry" />
        </mxCell>
        <mxCell id="vHGS4qTyj_NM40RGna0Z-68" style="edgeStyle=orthogonalEdgeStyle;rounded=0;orthogonalLoop=1;jettySize=auto;html=1;" parent="1" source="vHGS4qTyj_NM40RGna0Z-38" target="UpsgMlH7qFDsBHEWJ_tV-9" edge="1">
          <mxGeometry relative="1" as="geometry">
            <Array as="points">
              <mxPoint x="2250" y="1080" />
              <mxPoint x="2250" y="910" />
              <mxPoint x="1660" y="910" />
            </Array>
          </mxGeometry>
        </mxCell>
        <mxCell id="vHGS4qTyj_NM40RGna0Z-38" value="Projekt wurde erfolgreich hinzugefügt" style="whiteSpace=wrap;html=1;rounded=0;shadow=0;labelBackgroundColor=none;strokeColor=#000000;strokeWidth=1;fillColor=none;fontFamily=Verdana;fontSize=12;fontColor=#000000;align=center;comic=1;" parent="1" vertex="1">
          <mxGeometry x="2280" y="960" width="430" height="240" as="geometry" />
        </mxCell>
        <mxCell id="vHGS4qTyj_NM40RGna0Z-39" value="PopUp" style="text;html=1;align=center;verticalAlign=middle;whiteSpace=wrap;rounded=0;fontStyle=1;fontSize=21;" parent="1" vertex="1">
          <mxGeometry x="2405" y="920" width="180" height="40" as="geometry" />
        </mxCell>
        <mxCell id="vHGS4qTyj_NM40RGna0Z-69" style="edgeStyle=orthogonalEdgeStyle;rounded=0;orthogonalLoop=1;jettySize=auto;html=1;" parent="1" source="vHGS4qTyj_NM40RGna0Z-40" target="UpsgMlH7qFDsBHEWJ_tV-9" edge="1">
          <mxGeometry relative="1" as="geometry">
            <Array as="points">
              <mxPoint x="2730" y="1080" />
              <mxPoint x="2730" y="910" />
              <mxPoint x="1660" y="910" />
            </Array>
          </mxGeometry>
        </mxCell>
        <mxCell id="vHGS4qTyj_NM40RGna0Z-175" value="" style="edgeStyle=orthogonalEdgeStyle;rounded=0;orthogonalLoop=1;jettySize=auto;html=1;" parent="1" source="vHGS4qTyj_NM40RGna0Z-40" target="UpsgMlH7qFDsBHEWJ_tV-97" edge="1">
          <mxGeometry relative="1" as="geometry" />
        </mxCell>
        <mxCell id="vHGS4qTyj_NM40RGna0Z-40" value="Projekt wurde erfolgreich gelöscht" style="whiteSpace=wrap;html=1;rounded=0;shadow=0;labelBackgroundColor=none;strokeColor=#000000;strokeWidth=1;fillColor=none;fontFamily=Verdana;fontSize=12;fontColor=#000000;align=center;comic=1;" parent="1" vertex="1">
          <mxGeometry x="2740" y="960" width="430" height="240" as="geometry" />
        </mxCell>
        <mxCell id="vHGS4qTyj_NM40RGna0Z-41" value="PopUp" style="text;html=1;align=center;verticalAlign=middle;whiteSpace=wrap;rounded=0;fontStyle=1;fontSize=21;" parent="1" vertex="1">
          <mxGeometry x="2865" y="920" width="180" height="40" as="geometry" />
        </mxCell>
        <mxCell id="vHGS4qTyj_NM40RGna0Z-86" style="edgeStyle=orthogonalEdgeStyle;rounded=0;orthogonalLoop=1;jettySize=auto;html=1;" parent="1" source="vHGS4qTyj_NM40RGna0Z-42" target="UpsgMlH7qFDsBHEWJ_tV-9" edge="1">
          <mxGeometry relative="1" as="geometry">
            <Array as="points">
              <mxPoint x="2220" y="1400" />
              <mxPoint x="2220" y="910" />
              <mxPoint x="1660" y="910" />
            </Array>
          </mxGeometry>
        </mxCell>
        <mxCell id="vHGS4qTyj_NM40RGna0Z-42" value="Projekt wurde erfolgreich verändert" style="whiteSpace=wrap;html=1;rounded=0;shadow=0;labelBackgroundColor=none;strokeColor=#000000;strokeWidth=1;fillColor=none;fontFamily=Verdana;fontSize=12;fontColor=#000000;align=center;comic=1;" parent="1" vertex="1">
          <mxGeometry x="2280" y="1280" width="430" height="240" as="geometry" />
        </mxCell>
        <mxCell id="vHGS4qTyj_NM40RGna0Z-43" value="PopUp" style="text;html=1;align=center;verticalAlign=middle;whiteSpace=wrap;rounded=0;fontStyle=1;fontSize=21;" parent="1" vertex="1">
          <mxGeometry x="2405" y="1240" width="180" height="40" as="geometry" />
        </mxCell>
        <mxCell id="vHGS4qTyj_NM40RGna0Z-46" value="OK" style="whiteSpace=wrap;html=1;rounded=0;shadow=0;labelBackgroundColor=none;strokeWidth=1;fillColor=none;fontFamily=Verdana;fontSize=12;align=center;comic=1;" parent="1" vertex="1">
          <mxGeometry x="2912.5" y="1140" width="85" height="30" as="geometry" />
        </mxCell>
        <mxCell id="vHGS4qTyj_NM40RGna0Z-47" value="OK" style="whiteSpace=wrap;html=1;rounded=0;shadow=0;labelBackgroundColor=none;strokeWidth=1;fillColor=none;fontFamily=Verdana;fontSize=12;align=center;comic=1;" parent="1" vertex="1">
          <mxGeometry x="2452.5" y="1140" width="85" height="30" as="geometry" />
        </mxCell>
        <mxCell id="vHGS4qTyj_NM40RGna0Z-48" value="Update Project" style="whiteSpace=wrap;html=1;rounded=0;shadow=0;labelBackgroundColor=none;strokeWidth=1;fillColor=none;fontFamily=Verdana;fontSize=12;align=center;comic=1;" parent="1" vertex="1">
          <mxGeometry x="1715" y="160" width="105" height="30" as="geometry" />
        </mxCell>
        <mxCell id="vHGS4qTyj_NM40RGna0Z-112" style="edgeStyle=orthogonalEdgeStyle;rounded=0;orthogonalLoop=1;jettySize=auto;html=1;" parent="1" source="vHGS4qTyj_NM40RGna0Z-49" target="vHGS4qTyj_NM40RGna0Z-111" edge="1">
          <mxGeometry relative="1" as="geometry">
            <Array as="points">
              <mxPoint x="1982" y="910" />
              <mxPoint x="825" y="910" />
            </Array>
          </mxGeometry>
        </mxCell>
        <mxCell id="vHGS4qTyj_NM40RGna0Z-49" value="Next Project" style="whiteSpace=wrap;html=1;rounded=0;shadow=0;labelBackgroundColor=none;strokeWidth=1;fillColor=none;fontFamily=Verdana;fontSize=12;align=center;comic=1;" parent="1" vertex="1">
          <mxGeometry x="1940" y="800" width="85" height="30" as="geometry" />
        </mxCell>
        <mxCell id="vHGS4qTyj_NM40RGna0Z-50" value="Add Projet" style="whiteSpace=wrap;html=1;rounded=0;shadow=0;labelBackgroundColor=none;strokeWidth=1;fillColor=none;fontFamily=Verdana;fontSize=12;align=center;comic=1;" parent="1" vertex="1">
          <mxGeometry x="1260" y="800" width="85" height="30" as="geometry" />
        </mxCell>
        <mxCell id="vHGS4qTyj_NM40RGna0Z-51" value="Delete Projet" style="whiteSpace=wrap;html=1;rounded=0;shadow=0;labelBackgroundColor=none;strokeWidth=1;fillColor=none;fontFamily=Verdana;fontSize=12;align=center;comic=1;" parent="1" vertex="1">
          <mxGeometry x="1477.5" y="800" width="85" height="30" as="geometry" />
        </mxCell>
        <mxCell id="vHGS4qTyj_NM40RGna0Z-52" value="Update Project" style="whiteSpace=wrap;html=1;rounded=0;shadow=0;labelBackgroundColor=none;strokeWidth=1;fillColor=none;fontFamily=Verdana;fontSize=12;align=center;comic=1;" parent="1" vertex="1">
          <mxGeometry x="1722.5" y="800" width="105" height="30" as="geometry" />
        </mxCell>
        <mxCell id="vHGS4qTyj_NM40RGna0Z-54" value="Next Tasks" style="whiteSpace=wrap;html=1;rounded=0;shadow=0;labelBackgroundColor=none;strokeWidth=1;fillColor=none;fontFamily=Verdana;fontSize=12;align=center;comic=1;" parent="1" vertex="1">
          <mxGeometry x="3025" y="160" width="85" height="30" as="geometry" />
        </mxCell>
        <mxCell id="vHGS4qTyj_NM40RGna0Z-110" style="edgeStyle=orthogonalEdgeStyle;rounded=0;orthogonalLoop=1;jettySize=auto;html=1;" parent="1" source="vHGS4qTyj_NM40RGna0Z-55" target="vHGS4qTyj_NM40RGna0Z-87" edge="1">
          <mxGeometry relative="1" as="geometry">
            <Array as="points">
              <mxPoint x="2388" y="200" />
              <mxPoint x="3280" y="200" />
              <mxPoint x="3280" y="455" />
            </Array>
          </mxGeometry>
        </mxCell>
        <mxCell id="vHGS4qTyj_NM40RGna0Z-55" value="Add Task" style="whiteSpace=wrap;html=1;rounded=0;shadow=0;labelBackgroundColor=none;strokeWidth=1;fillColor=none;fontFamily=Verdana;fontSize=12;align=center;comic=1;" parent="1" vertex="1">
          <mxGeometry x="2345" y="160" width="85" height="30" as="geometry" />
        </mxCell>
        <mxCell id="vHGS4qTyj_NM40RGna0Z-56" value="Delete Task" style="whiteSpace=wrap;html=1;rounded=0;shadow=0;labelBackgroundColor=none;strokeWidth=1;fillColor=none;fontFamily=Verdana;fontSize=12;align=center;comic=1;" parent="1" vertex="1">
          <mxGeometry x="2562.5" y="160" width="85" height="30" as="geometry" />
        </mxCell>
        <mxCell id="vHGS4qTyj_NM40RGna0Z-57" value="Update Task" style="whiteSpace=wrap;html=1;rounded=0;shadow=0;labelBackgroundColor=none;strokeWidth=1;fillColor=none;fontFamily=Verdana;fontSize=12;align=center;comic=1;" parent="1" vertex="1">
          <mxGeometry x="2807.5" y="160" width="105" height="30" as="geometry" />
        </mxCell>
        <mxCell id="vHGS4qTyj_NM40RGna0Z-174" style="edgeStyle=orthogonalEdgeStyle;rounded=0;orthogonalLoop=1;jettySize=auto;html=1;" parent="1" source="vHGS4qTyj_NM40RGna0Z-59" target="vHGS4qTyj_NM40RGna0Z-173" edge="1">
          <mxGeometry relative="1" as="geometry">
            <Array as="points">
              <mxPoint x="3067" y="870" />
              <mxPoint x="3200" y="870" />
              <mxPoint x="3200" y="1295" />
            </Array>
          </mxGeometry>
        </mxCell>
        <mxCell id="vHGS4qTyj_NM40RGna0Z-59" value="Next Tasks" style="whiteSpace=wrap;html=1;rounded=0;shadow=0;labelBackgroundColor=none;strokeWidth=1;fillColor=none;fontFamily=Verdana;fontSize=12;align=center;comic=1;" parent="1" vertex="1">
          <mxGeometry x="3025" y="800" width="85" height="30" as="geometry" />
        </mxCell>
        <mxCell id="vHGS4qTyj_NM40RGna0Z-60" value="Add Task" style="whiteSpace=wrap;html=1;rounded=0;shadow=0;labelBackgroundColor=none;strokeWidth=1;fillColor=none;fontFamily=Verdana;fontSize=12;align=center;comic=1;" parent="1" vertex="1">
          <mxGeometry x="2345" y="800" width="85" height="30" as="geometry" />
        </mxCell>
        <mxCell id="vHGS4qTyj_NM40RGna0Z-138" style="edgeStyle=orthogonalEdgeStyle;rounded=0;orthogonalLoop=1;jettySize=auto;html=1;" parent="1" source="vHGS4qTyj_NM40RGna0Z-61" target="vHGS4qTyj_NM40RGna0Z-137" edge="1">
          <mxGeometry relative="1" as="geometry">
            <Array as="points">
              <mxPoint x="2605" y="890" />
              <mxPoint x="3260" y="890" />
            </Array>
          </mxGeometry>
        </mxCell>
        <mxCell id="vHGS4qTyj_NM40RGna0Z-61" value="Delete Taask" style="whiteSpace=wrap;html=1;rounded=0;shadow=0;labelBackgroundColor=none;strokeWidth=1;fillColor=none;fontFamily=Verdana;fontSize=12;align=center;comic=1;" parent="1" vertex="1">
          <mxGeometry x="2562.5" y="800" width="85" height="30" as="geometry" />
        </mxCell>
        <mxCell id="vHGS4qTyj_NM40RGna0Z-139" style="edgeStyle=orthogonalEdgeStyle;rounded=0;orthogonalLoop=1;jettySize=auto;html=1;" parent="1" source="vHGS4qTyj_NM40RGna0Z-62" target="vHGS4qTyj_NM40RGna0Z-137" edge="1">
          <mxGeometry relative="1" as="geometry">
            <Array as="points">
              <mxPoint x="2860" y="880" />
              <mxPoint x="3260" y="880" />
            </Array>
          </mxGeometry>
        </mxCell>
        <mxCell id="vHGS4qTyj_NM40RGna0Z-62" value="Update Task" style="whiteSpace=wrap;html=1;rounded=0;shadow=0;labelBackgroundColor=none;strokeWidth=1;fillColor=none;fontFamily=Verdana;fontSize=12;align=center;comic=1;" parent="1" vertex="1">
          <mxGeometry x="2807.5" y="800" width="105" height="30" as="geometry" />
        </mxCell>
        <mxCell id="vHGS4qTyj_NM40RGna0Z-65" style="edgeStyle=orthogonalEdgeStyle;rounded=0;orthogonalLoop=1;jettySize=auto;html=1;" parent="1" source="vHGS4qTyj_NM40RGna0Z-51" target="vHGS4qTyj_NM40RGna0Z-25" edge="1">
          <mxGeometry relative="1" as="geometry">
            <mxPoint x="1020" y="970" as="sourcePoint" />
            <Array as="points">
              <mxPoint x="1520" y="880" />
              <mxPoint x="1020" y="880" />
              <mxPoint x="1020" y="2225" />
            </Array>
          </mxGeometry>
        </mxCell>
        <mxCell id="vHGS4qTyj_NM40RGna0Z-78" style="edgeStyle=orthogonalEdgeStyle;rounded=0;orthogonalLoop=1;jettySize=auto;html=1;" parent="1" source="vHGS4qTyj_NM40RGna0Z-52" target="vHGS4qTyj_NM40RGna0Z-75" edge="1">
          <mxGeometry relative="1" as="geometry">
            <mxPoint x="970" y="970" as="sourcePoint" />
            <Array as="points">
              <mxPoint x="1775" y="890" />
              <mxPoint x="970" y="890" />
              <mxPoint x="970" y="3125" />
            </Array>
          </mxGeometry>
        </mxCell>
        <mxCell id="vHGS4qTyj_NM40RGna0Z-66" value="Projekt löschen" style="text;html=1;align=center;verticalAlign=middle;whiteSpace=wrap;rounded=0;fontStyle=1;fontSize=21;" parent="1" vertex="1">
          <mxGeometry x="1555" y="1780" width="180" height="40" as="geometry" />
        </mxCell>
        <mxCell id="vHGS4qTyj_NM40RGna0Z-70" value="OK" style="whiteSpace=wrap;html=1;rounded=0;shadow=0;labelBackgroundColor=none;strokeWidth=1;fillColor=none;fontFamily=Verdana;fontSize=12;align=center;comic=1;" parent="1" vertex="1">
          <mxGeometry x="2447.5" y="1450" width="85" height="30" as="geometry" />
        </mxCell>
        <mxCell id="vHGS4qTyj_NM40RGna0Z-85" style="edgeStyle=orthogonalEdgeStyle;rounded=0;orthogonalLoop=1;jettySize=auto;html=1;exitX=0.5;exitY=1;exitDx=0;exitDy=0;" parent="1" source="vHGS4qTyj_NM40RGna0Z-83" target="vHGS4qTyj_NM40RGna0Z-42" edge="1">
          <mxGeometry relative="1" as="geometry" />
        </mxCell>
        <mxCell id="vHGS4qTyj_NM40RGna0Z-75" value="" style="whiteSpace=wrap;html=1;rounded=0;shadow=0;labelBackgroundColor=none;strokeColor=#000000;strokeWidth=1;fillColor=none;fontFamily=Verdana;fontSize=12;fontColor=#000000;align=center;comic=1;" parent="1" vertex="1">
          <mxGeometry x="1138.5" y="2720" width="1060" height="810" as="geometry" />
        </mxCell>
        <mxCell id="vHGS4qTyj_NM40RGna0Z-76" value="" style="endArrow=none;dashed=1;html=1;dashPattern=1 3;strokeWidth=2;rounded=0;entryX=0;entryY=0.129;entryDx=0;entryDy=0;entryPerimeter=0;exitX=1.003;exitY=0.13;exitDx=0;exitDy=0;exitPerimeter=0;" parent="1" edge="1">
          <mxGeometry width="50" height="50" relative="1" as="geometry">
            <mxPoint x="2200" y="2821" as="sourcePoint" />
            <mxPoint x="1137" y="2820" as="targetPoint" />
          </mxGeometry>
        </mxCell>
        <mxCell id="vHGS4qTyj_NM40RGna0Z-77" value="Projekt verändern" style="text;html=1;align=center;verticalAlign=middle;whiteSpace=wrap;rounded=0;fontStyle=1;fontSize=21;" parent="1" vertex="1">
          <mxGeometry x="1570" y="2680" width="210" height="40" as="geometry" />
        </mxCell>
        <mxCell id="vHGS4qTyj_NM40RGna0Z-79" value="Projektname verändern:" style="whiteSpace=wrap;html=1;rounded=0;shadow=0;labelBackgroundColor=none;strokeWidth=1;fillColor=none;fontFamily=Verdana;fontSize=12;align=center;comic=1;" parent="1" vertex="1">
          <mxGeometry x="1170" y="2860" width="160" height="40" as="geometry" />
        </mxCell>
        <mxCell id="vHGS4qTyj_NM40RGna0Z-80" value="Textfeld, steht vorher der aktuelle Name" style="whiteSpace=wrap;html=1;rounded=0;shadow=0;labelBackgroundColor=none;strokeWidth=1;fillColor=none;fontFamily=Verdana;fontSize=12;align=center;comic=1;" parent="1" vertex="1">
          <mxGeometry x="1370" y="2860" width="670" height="40" as="geometry" />
        </mxCell>
        <mxCell id="vHGS4qTyj_NM40RGna0Z-81" value="Projektbeschreibung verändern:" style="whiteSpace=wrap;html=1;rounded=0;shadow=0;labelBackgroundColor=none;strokeWidth=1;fillColor=none;fontFamily=Verdana;fontSize=12;align=center;comic=1;" parent="1" vertex="1">
          <mxGeometry x="1170" y="2920" width="160" height="40" as="geometry" />
        </mxCell>
        <mxCell id="vHGS4qTyj_NM40RGna0Z-82" value="Textfeld, steht vorher die aktuelle Projektbeschreibung" style="whiteSpace=wrap;html=1;rounded=0;shadow=0;labelBackgroundColor=none;strokeWidth=1;fillColor=none;fontFamily=Verdana;fontSize=12;align=center;comic=1;" parent="1" vertex="1">
          <mxGeometry x="1370" y="2920" width="670" height="340" as="geometry" />
        </mxCell>
        <mxCell id="vHGS4qTyj_NM40RGna0Z-83" value="Update Projet" style="whiteSpace=wrap;html=1;rounded=0;shadow=0;labelBackgroundColor=none;strokeWidth=1;fillColor=none;fontFamily=Verdana;fontSize=12;align=center;comic=1;" parent="1" vertex="1">
          <mxGeometry x="1207.5" y="3380" width="85" height="30" as="geometry" />
        </mxCell>
        <mxCell id="d6Erp2eyZHGO9Y9gUzmG-7" style="edgeStyle=orthogonalEdgeStyle;rounded=0;orthogonalLoop=1;jettySize=auto;html=1;" edge="1" parent="1" source="vHGS4qTyj_NM40RGna0Z-84" target="UpsgMlH7qFDsBHEWJ_tV-9">
          <mxGeometry relative="1" as="geometry">
            <Array as="points">
              <mxPoint x="1998" y="3460" />
              <mxPoint x="1100" y="3460" />
              <mxPoint x="1100" y="445" />
            </Array>
          </mxGeometry>
        </mxCell>
        <mxCell id="vHGS4qTyj_NM40RGna0Z-84" value="Cancel" style="whiteSpace=wrap;html=1;rounded=0;shadow=0;labelBackgroundColor=none;strokeWidth=1;fillColor=none;fontFamily=Verdana;fontSize=12;align=center;comic=1;" parent="1" vertex="1">
          <mxGeometry x="1955" y="3380" width="85" height="30" as="geometry" />
        </mxCell>
        <mxCell id="vHGS4qTyj_NM40RGna0Z-87" value="" style="whiteSpace=wrap;html=1;rounded=0;shadow=0;labelBackgroundColor=none;strokeColor=#000000;strokeWidth=1;fillColor=none;fontFamily=Verdana;fontSize=12;fontColor=#000000;align=center;comic=1;" parent="1" vertex="1">
          <mxGeometry x="3341.5" y="50" width="1060" height="810" as="geometry" />
        </mxCell>
        <mxCell id="vHGS4qTyj_NM40RGna0Z-88" value="" style="endArrow=none;dashed=1;html=1;dashPattern=1 3;strokeWidth=2;rounded=0;entryX=0;entryY=0.129;entryDx=0;entryDy=0;entryPerimeter=0;exitX=1.003;exitY=0.13;exitDx=0;exitDy=0;exitPerimeter=0;" parent="1" edge="1">
          <mxGeometry width="50" height="50" relative="1" as="geometry">
            <mxPoint x="4403" y="146" as="sourcePoint" />
            <mxPoint x="3340" y="145" as="targetPoint" />
          </mxGeometry>
        </mxCell>
        <mxCell id="vHGS4qTyj_NM40RGna0Z-89" value="Taskname:" style="whiteSpace=wrap;html=1;rounded=0;shadow=0;labelBackgroundColor=none;strokeWidth=1;fillColor=none;fontFamily=Verdana;fontSize=12;align=center;comic=1;" parent="1" vertex="1">
          <mxGeometry x="3400" y="200" width="160" height="40" as="geometry" />
        </mxCell>
        <mxCell id="vHGS4qTyj_NM40RGna0Z-90" value="Textfeld" style="whiteSpace=wrap;html=1;rounded=0;shadow=0;labelBackgroundColor=none;strokeWidth=1;fillColor=none;fontFamily=Verdana;fontSize=12;align=center;comic=1;" parent="1" vertex="1">
          <mxGeometry x="3600" y="200" width="670" height="40" as="geometry" />
        </mxCell>
        <mxCell id="vHGS4qTyj_NM40RGna0Z-91" value="Startdatum:" style="whiteSpace=wrap;html=1;rounded=0;shadow=0;labelBackgroundColor=none;strokeWidth=1;fillColor=none;fontFamily=Verdana;fontSize=12;align=center;comic=1;" parent="1" vertex="1">
          <mxGeometry x="3400" y="270" width="160" height="40" as="geometry" />
        </mxCell>
        <mxCell id="vHGS4qTyj_NM40RGna0Z-92" value="Enddatum:" style="whiteSpace=wrap;html=1;rounded=0;shadow=0;labelBackgroundColor=none;strokeWidth=1;fillColor=none;fontFamily=Verdana;fontSize=12;align=center;comic=1;" parent="1" vertex="1">
          <mxGeometry x="3400" y="340" width="160" height="40" as="geometry" />
        </mxCell>
        <mxCell id="vHGS4qTyj_NM40RGna0Z-93" value="Zuweisen:" style="whiteSpace=wrap;html=1;rounded=0;shadow=0;labelBackgroundColor=none;strokeWidth=1;fillColor=none;fontFamily=Verdana;fontSize=12;align=center;comic=1;" parent="1" vertex="1">
          <mxGeometry x="3400" y="405" width="160" height="40" as="geometry" />
        </mxCell>
        <mxCell id="vHGS4qTyj_NM40RGna0Z-94" value="Taskbeschreibung:" style="whiteSpace=wrap;html=1;rounded=0;shadow=0;labelBackgroundColor=none;strokeWidth=1;fillColor=none;fontFamily=Verdana;fontSize=12;align=center;comic=1;" parent="1" vertex="1">
          <mxGeometry x="3400" y="465" width="160" height="40" as="geometry" />
        </mxCell>
        <mxCell id="vHGS4qTyj_NM40RGna0Z-96" value="Parenttask-Name:" style="whiteSpace=wrap;html=1;rounded=0;shadow=0;labelBackgroundColor=none;strokeWidth=1;fillColor=none;fontFamily=Verdana;fontSize=12;align=center;comic=1;" parent="1" vertex="1">
          <mxGeometry x="3400" y="710" width="160" height="40" as="geometry" />
        </mxCell>
        <mxCell id="vHGS4qTyj_NM40RGna0Z-97" value="Subtask-Name:" style="whiteSpace=wrap;html=1;rounded=0;shadow=0;labelBackgroundColor=none;strokeWidth=1;fillColor=none;fontFamily=Verdana;fontSize=12;align=center;comic=1;" parent="1" vertex="1">
          <mxGeometry x="3400" y="780" width="160" height="40" as="geometry" />
        </mxCell>
        <mxCell id="vHGS4qTyj_NM40RGna0Z-98" value="Textfeld" style="whiteSpace=wrap;html=1;rounded=0;shadow=0;labelBackgroundColor=none;strokeWidth=1;fillColor=none;fontFamily=Verdana;fontSize=12;align=center;comic=1;" parent="1" vertex="1">
          <mxGeometry x="3600" y="270" width="670" height="40" as="geometry" />
        </mxCell>
        <mxCell id="vHGS4qTyj_NM40RGna0Z-99" value="Textfeld" style="whiteSpace=wrap;html=1;rounded=0;shadow=0;labelBackgroundColor=none;strokeWidth=1;fillColor=none;fontFamily=Verdana;fontSize=12;align=center;comic=1;" parent="1" vertex="1">
          <mxGeometry x="3600" y="340" width="670" height="40" as="geometry" />
        </mxCell>
        <mxCell id="vHGS4qTyj_NM40RGna0Z-102" style="edgeStyle=orthogonalEdgeStyle;rounded=0;orthogonalLoop=1;jettySize=auto;html=1;" parent="1" source="vHGS4qTyj_NM40RGna0Z-100" target="vHGS4qTyj_NM40RGna0Z-101" edge="1">
          <mxGeometry relative="1" as="geometry" />
        </mxCell>
        <mxCell id="vHGS4qTyj_NM40RGna0Z-100" value="Dropdown mit allen Personen" style="whiteSpace=wrap;html=1;rounded=0;shadow=0;labelBackgroundColor=none;strokeWidth=1;fillColor=none;fontFamily=Verdana;fontSize=12;align=center;comic=1;" parent="1" vertex="1">
          <mxGeometry x="3600" y="405" width="670" height="40" as="geometry" />
        </mxCell>
        <mxCell id="vHGS4qTyj_NM40RGna0Z-101" value="Hat die Möglichkeit zum suchen, nach gewissen Personen" style="text;html=1;align=center;verticalAlign=middle;whiteSpace=wrap;rounded=0;" parent="1" vertex="1">
          <mxGeometry x="4450" y="393" width="170" height="65" as="geometry" />
        </mxCell>
        <mxCell id="vHGS4qTyj_NM40RGna0Z-106" value="Textfeld" style="whiteSpace=wrap;html=1;rounded=0;shadow=0;labelBackgroundColor=none;strokeWidth=1;fillColor=none;fontFamily=Verdana;fontSize=12;align=center;comic=1;" parent="1" vertex="1">
          <mxGeometry x="3600" y="465" width="670" height="215" as="geometry" />
        </mxCell>
        <mxCell id="vHGS4qTyj_NM40RGna0Z-107" value="Dropdown mit allen möglichen Pranttask" style="whiteSpace=wrap;html=1;rounded=0;shadow=0;labelBackgroundColor=none;strokeWidth=1;fillColor=none;fontFamily=Verdana;fontSize=12;align=center;comic=1;" parent="1" vertex="1">
          <mxGeometry x="3600" y="710" width="670" height="40" as="geometry" />
        </mxCell>
        <mxCell id="vHGS4qTyj_NM40RGna0Z-108" value="Dropdown mit allen möglichen Subtask, kann Nichts sein" style="whiteSpace=wrap;html=1;rounded=0;shadow=0;labelBackgroundColor=none;strokeWidth=1;fillColor=none;fontFamily=Verdana;fontSize=12;align=center;comic=1;" parent="1" vertex="1">
          <mxGeometry x="3600" y="780" width="670" height="40" as="geometry" />
        </mxCell>
        <mxCell id="vHGS4qTyj_NM40RGna0Z-109" value="Task erstellen" style="text;html=1;align=center;verticalAlign=middle;whiteSpace=wrap;rounded=0;fontStyle=1;fontSize=21;" parent="1" vertex="1">
          <mxGeometry x="3845" y="10" width="180" height="40" as="geometry" />
        </mxCell>
        <mxCell id="vHGS4qTyj_NM40RGna0Z-111" value="Soll die nächsten Projekte, auf der Seite, laden und dann anzeigen" style="text;html=1;align=center;verticalAlign=middle;whiteSpace=wrap;rounded=0;" parent="1" vertex="1">
          <mxGeometry x="780" y="980" width="110" height="80" as="geometry" />
        </mxCell>
        <mxCell id="vHGS4qTyj_NM40RGna0Z-113" value="" style="whiteSpace=wrap;html=1;rounded=0;shadow=0;labelBackgroundColor=none;strokeColor=#000000;strokeWidth=1;fillColor=none;fontFamily=Verdana;fontSize=12;fontColor=#000000;align=center;comic=1;" parent="1" vertex="1">
          <mxGeometry x="3343" y="920" width="1060" height="810" as="geometry" />
        </mxCell>
        <mxCell id="vHGS4qTyj_NM40RGna0Z-114" value="" style="endArrow=none;dashed=1;html=1;dashPattern=1 3;strokeWidth=2;rounded=0;entryX=0;entryY=0.129;entryDx=0;entryDy=0;entryPerimeter=0;exitX=1.003;exitY=0.13;exitDx=0;exitDy=0;exitPerimeter=0;" parent="1" edge="1">
          <mxGeometry width="50" height="50" relative="1" as="geometry">
            <mxPoint x="4404.5" y="1016" as="sourcePoint" />
            <mxPoint x="3341.5" y="1015" as="targetPoint" />
          </mxGeometry>
        </mxCell>
        <mxCell id="vHGS4qTyj_NM40RGna0Z-118" value="" style="dashed=0;labelPosition=right;align=left;shape=mxgraph.gmdl.checkbox;strokeColor=none;fillColor=#009587;strokeWidth=2;aspect=fixed;sketch=0;html=1;" parent="1" vertex="1">
          <mxGeometry x="1434" y="610" width="16" height="16" as="geometry" />
        </mxCell>
        <mxCell id="vHGS4qTyj_NM40RGna0Z-119" value="" style="dashed=0;labelPosition=right;align=left;shape=mxgraph.gmdl.checkbox;strokeColor=none;fillColor=#009587;strokeWidth=2;aspect=fixed;sketch=0;html=1;" parent="1" vertex="1">
          <mxGeometry x="1434" y="409" width="16" height="16" as="geometry" />
        </mxCell>
        <mxCell id="vHGS4qTyj_NM40RGna0Z-120" value="" style="dashed=0;labelPosition=right;align=left;shape=mxgraph.gmdl.checkbox;strokeColor=none;fillColor=#009587;strokeWidth=2;aspect=fixed;sketch=0;html=1;" parent="1" vertex="1">
          <mxGeometry x="1434" y="220" width="16" height="16" as="geometry" />
        </mxCell>
        <mxCell id="vHGS4qTyj_NM40RGna0Z-121" value="" style="dashed=0;labelPosition=right;align=left;shape=mxgraph.gmdl.checkbox;strokeColor=none;fillColor=#009587;strokeWidth=2;aspect=fixed;sketch=0;html=1;" parent="1" vertex="1">
          <mxGeometry x="1764" y="612" width="16" height="16" as="geometry" />
        </mxCell>
        <mxCell id="vHGS4qTyj_NM40RGna0Z-122" value="" style="dashed=0;labelPosition=right;align=left;shape=mxgraph.gmdl.checkbox;strokeColor=none;fillColor=#009587;strokeWidth=2;aspect=fixed;sketch=0;html=1;" parent="1" vertex="1">
          <mxGeometry x="1764" y="411" width="16" height="16" as="geometry" />
        </mxCell>
        <mxCell id="vHGS4qTyj_NM40RGna0Z-128" style="edgeStyle=orthogonalEdgeStyle;rounded=0;orthogonalLoop=1;jettySize=auto;html=1;" parent="1" source="vHGS4qTyj_NM40RGna0Z-123" target="vHGS4qTyj_NM40RGna0Z-127" edge="1">
          <mxGeometry relative="1" as="geometry">
            <Array as="points">
              <mxPoint x="1830" y="230" />
              <mxPoint x="1830" y="-35" />
            </Array>
          </mxGeometry>
        </mxCell>
        <mxCell id="vHGS4qTyj_NM40RGna0Z-123" value="" style="dashed=0;labelPosition=right;align=left;shape=mxgraph.gmdl.checkbox;strokeColor=none;fillColor=#009587;strokeWidth=2;aspect=fixed;sketch=0;html=1;" parent="1" vertex="1">
          <mxGeometry x="1764" y="222" width="16" height="16" as="geometry" />
        </mxCell>
        <mxCell id="vHGS4qTyj_NM40RGna0Z-124" value="" style="dashed=0;labelPosition=right;align=left;shape=mxgraph.gmdl.checkbox;strokeColor=none;fillColor=#009587;strokeWidth=2;aspect=fixed;sketch=0;html=1;" parent="1" vertex="1">
          <mxGeometry x="2109" y="612" width="16" height="16" as="geometry" />
        </mxCell>
        <mxCell id="vHGS4qTyj_NM40RGna0Z-125" value="" style="dashed=0;labelPosition=right;align=left;shape=mxgraph.gmdl.checkbox;strokeColor=none;fillColor=#009587;strokeWidth=2;aspect=fixed;sketch=0;html=1;" parent="1" vertex="1">
          <mxGeometry x="2109" y="419" width="16" height="16" as="geometry" />
        </mxCell>
        <mxCell id="vHGS4qTyj_NM40RGna0Z-126" value="" style="dashed=0;labelPosition=right;align=left;shape=mxgraph.gmdl.checkbox;strokeColor=none;fillColor=#009587;strokeWidth=2;aspect=fixed;sketch=0;html=1;" parent="1" vertex="1">
          <mxGeometry x="2109" y="230" width="16" height="16" as="geometry" />
        </mxCell>
        <mxCell id="vHGS4qTyj_NM40RGna0Z-127" value="Checkboxen zum auswählen des Projektes" style="text;html=1;align=center;verticalAlign=middle;whiteSpace=wrap;rounded=0;" parent="1" vertex="1">
          <mxGeometry x="1968" y="-80" width="122" height="60" as="geometry" />
        </mxCell>
        <mxCell id="vHGS4qTyj_NM40RGna0Z-129" value="Das mit der Checkbox ausgewählte Projekt wird im nächsten Fenster angezeigt" style="text;html=1;align=center;verticalAlign=middle;whiteSpace=wrap;rounded=0;" parent="1" vertex="1">
          <mxGeometry x="940" y="1060" width="100" height="130" as="geometry" />
        </mxCell>
        <mxCell id="vHGS4qTyj_NM40RGna0Z-130" value="" style="dashed=0;labelPosition=right;align=left;shape=mxgraph.gmdl.checkbox;strokeColor=none;fillColor=#009587;strokeWidth=2;aspect=fixed;sketch=0;html=1;" parent="1" vertex="1">
          <mxGeometry x="2514" y="520" width="16" height="16" as="geometry" />
        </mxCell>
        <mxCell id="vHGS4qTyj_NM40RGna0Z-136" style="edgeStyle=orthogonalEdgeStyle;rounded=0;orthogonalLoop=1;jettySize=auto;html=1;" parent="1" source="vHGS4qTyj_NM40RGna0Z-131" target="vHGS4qTyj_NM40RGna0Z-135" edge="1">
          <mxGeometry relative="1" as="geometry" />
        </mxCell>
        <mxCell id="vHGS4qTyj_NM40RGna0Z-131" value="" style="dashed=0;labelPosition=right;align=left;shape=mxgraph.gmdl.checkbox;strokeColor=none;fillColor=#009587;strokeWidth=2;aspect=fixed;sketch=0;html=1;" parent="1" vertex="1">
          <mxGeometry x="2514" y="230" width="16" height="16" as="geometry" />
        </mxCell>
        <mxCell id="vHGS4qTyj_NM40RGna0Z-132" value="" style="dashed=0;labelPosition=right;align=left;shape=mxgraph.gmdl.checkbox;strokeColor=none;fillColor=#009587;strokeWidth=2;aspect=fixed;sketch=0;html=1;" parent="1" vertex="1">
          <mxGeometry x="2879" y="230" width="16" height="16" as="geometry" />
        </mxCell>
        <mxCell id="vHGS4qTyj_NM40RGna0Z-133" value="" style="whiteSpace=wrap;html=1;rounded=0;shadow=0;labelBackgroundColor=none;strokeColor=#000000;strokeWidth=1;fillColor=none;fontFamily=Verdana;fontSize=12;fontColor=#000000;align=center;comic=1;" parent="1" vertex="1">
          <mxGeometry x="3344.5" y="1850" width="1060" height="810" as="geometry" />
        </mxCell>
        <mxCell id="vHGS4qTyj_NM40RGna0Z-134" value="" style="endArrow=none;dashed=1;html=1;dashPattern=1 3;strokeWidth=2;rounded=0;entryX=0;entryY=0.129;entryDx=0;entryDy=0;entryPerimeter=0;exitX=1.003;exitY=0.13;exitDx=0;exitDy=0;exitPerimeter=0;" parent="1" edge="1">
          <mxGeometry width="50" height="50" relative="1" as="geometry">
            <mxPoint x="4406" y="1946" as="sourcePoint" />
            <mxPoint x="3343" y="1945" as="targetPoint" />
          </mxGeometry>
        </mxCell>
        <mxCell id="vHGS4qTyj_NM40RGna0Z-135" value="Checkboxen zum auswählen der Task" style="text;html=1;align=center;verticalAlign=middle;whiteSpace=wrap;rounded=0;" parent="1" vertex="1">
          <mxGeometry x="2461" y="-60" width="122" height="60" as="geometry" />
        </mxCell>
        <mxCell id="vHGS4qTyj_NM40RGna0Z-146" style="edgeStyle=orthogonalEdgeStyle;rounded=0;orthogonalLoop=1;jettySize=auto;html=1;" parent="1" source="vHGS4qTyj_NM40RGna0Z-137" target="vHGS4qTyj_NM40RGna0Z-113" edge="1">
          <mxGeometry relative="1" as="geometry">
            <Array as="points">
              <mxPoint x="3250" y="1325" />
            </Array>
          </mxGeometry>
        </mxCell>
        <mxCell id="vHGS4qTyj_NM40RGna0Z-147" style="edgeStyle=orthogonalEdgeStyle;rounded=0;orthogonalLoop=1;jettySize=auto;html=1;" parent="1" source="vHGS4qTyj_NM40RGna0Z-137" target="vHGS4qTyj_NM40RGna0Z-133" edge="1">
          <mxGeometry relative="1" as="geometry">
            <Array as="points">
              <mxPoint x="3250" y="2255" />
            </Array>
          </mxGeometry>
        </mxCell>
        <mxCell id="vHGS4qTyj_NM40RGna0Z-137" value="Die mit der Checkbox ausgewählte Task wird im nächsten Fenster angezeigt" style="text;html=1;align=center;verticalAlign=middle;whiteSpace=wrap;rounded=0;" parent="1" vertex="1">
          <mxGeometry x="3210" y="955" width="100" height="130" as="geometry" />
        </mxCell>
        <mxCell id="vHGS4qTyj_NM40RGna0Z-140" value="Task löschen&lt;span style=&quot;color: rgba(0, 0, 0, 0); font-family: monospace; font-size: 0px; font-weight: 400; text-align: start; text-wrap-mode: nowrap;&quot;&gt;%3CmxGraphModel%3E%3Croot%3E%3CmxCell%20id%3D%220%22%2F%3E%3CmxCell%20id%3D%221%22%20parent%3D%220%22%2F%3E%3CmxCell%20id%3D%222%22%20value%3D%22Task%20erstellen%22%20style%3D%22text%3Bhtml%3D1%3Balign%3Dcenter%3BverticalAlign%3Dmiddle%3BwhiteSpace%3Dwrap%3Brounded%3D0%3BfontStyle%3D1%3BfontSize%3D21%3B%22%20vertex%3D%221%22%20parent%3D%221%22%3E%3CmxGeometry%20x%3D%223845%22%20y%3D%2210%22%20width%3D%22180%22%20height%3D%2240%22%20as%3D%22geometry%22%2F%3E%3C%2FmxCell%3E%3C%2Froot%3E%3C%2FmxGraphModel%3E&lt;/span&gt;" style="text;html=1;align=center;verticalAlign=middle;whiteSpace=wrap;rounded=0;fontStyle=1;fontSize=21;" parent="1" vertex="1">
          <mxGeometry x="3780" y="880" width="180" height="40" as="geometry" />
        </mxCell>
        <mxCell id="vHGS4qTyj_NM40RGna0Z-143" value="Task verändern&lt;span style=&quot;color: rgba(0, 0, 0, 0); font-family: monospace; font-size: 0px; font-weight: 400; text-align: start; text-wrap-mode: nowrap;&quot;&gt;%3CmxGraphModel%3E%3Croot%3E%3CmxCell%20id%3D%220%22%2F%3E%3CmxCell%20id%3D%221%22%20parent%3D%220%22%2F%3E%3CmxCell%20id%3D%222%22%20value%3D%22Task%20erstellen%22%20style%3D%22text%3Bhtml%3D1%3Balign%3Dcenter%3BverticalAlign%3Dmiddle%3BwhiteSpace%3Dwrap%3Brounded%3D0%3BfontStyle%3D1%3BfontSize%3D21%3B%22%20vertex%3D%221%22%20parent%3D%221%22%3E%3CmxGeometry%20x%3D%223845%22%20y%3D%2210%22%20width%3D%22180%22%20height%3D%2240%22%20as%3D%22geometry%22%2F%3E%3C%2FmxCell%3E%3C%2Froot%3E%3C%2FmxGraphModel%T&lt;/span&gt;" style="text;html=1;align=center;verticalAlign=middle;whiteSpace=wrap;rounded=0;fontStyle=1;fontSize=21;" parent="1" vertex="1">
          <mxGeometry x="3760" y="1810" width="180" height="40" as="geometry" />
        </mxCell>
        <mxCell id="vHGS4qTyj_NM40RGna0Z-148" value="" style="whiteSpace=wrap;html=1;rounded=0;shadow=0;labelBackgroundColor=none;strokeWidth=1;fillColor=none;fontFamily=Verdana;fontSize=12;align=center;comic=1;" parent="1" vertex="1">
          <mxGeometry x="3728" y="1060" width="290" height="260" as="geometry" />
        </mxCell>
        <mxCell id="vHGS4qTyj_NM40RGna0Z-149" value="Taskbeschreibung" style="whiteSpace=wrap;html=1;rounded=0;shadow=0;labelBackgroundColor=none;strokeWidth=1;fillColor=none;fontFamily=Verdana;fontSize=12;align=center;comic=1;" parent="1" vertex="1">
          <mxGeometry x="3728" y="1160" width="290" height="90" as="geometry" />
        </mxCell>
        <mxCell id="vHGS4qTyj_NM40RGna0Z-150" value="Taskname" style="whiteSpace=wrap;html=1;rounded=0;shadow=0;labelBackgroundColor=none;strokeWidth=1;fillColor=none;fontFamily=Verdana;fontSize=12;align=center;comic=1;" parent="1" vertex="1">
          <mxGeometry x="3818" y="1060" width="100" height="40" as="geometry" />
        </mxCell>
        <mxCell id="vHGS4qTyj_NM40RGna0Z-151" value="Startdatum" style="whiteSpace=wrap;html=1;rounded=0;shadow=0;labelBackgroundColor=none;strokeWidth=1;fillColor=none;fontFamily=Verdana;fontSize=12;align=center;comic=1;" parent="1" vertex="1">
          <mxGeometry x="3728" y="1110" width="80" height="30" as="geometry" />
        </mxCell>
        <mxCell id="vHGS4qTyj_NM40RGna0Z-152" value="Enddatum" style="whiteSpace=wrap;html=1;rounded=0;shadow=0;labelBackgroundColor=none;strokeWidth=1;fillColor=none;fontFamily=Verdana;fontSize=12;align=center;comic=1;" parent="1" vertex="1">
          <mxGeometry x="3938" y="1110" width="80" height="30" as="geometry" />
        </mxCell>
        <mxCell id="vHGS4qTyj_NM40RGna0Z-153" value="Zugewiesen" style="whiteSpace=wrap;html=1;rounded=0;shadow=0;labelBackgroundColor=none;strokeWidth=1;fillColor=none;fontFamily=Verdana;fontSize=12;align=center;comic=1;" parent="1" vertex="1">
          <mxGeometry x="3828" y="1110" width="80" height="30" as="geometry" />
        </mxCell>
        <mxCell id="vHGS4qTyj_NM40RGna0Z-154" value="Subtask-Name" style="whiteSpace=wrap;html=1;rounded=0;shadow=0;labelBackgroundColor=none;strokeWidth=1;fillColor=none;fontFamily=Verdana;fontSize=12;align=center;comic=1;" parent="1" vertex="1">
          <mxGeometry x="3728" y="1280" width="290" height="40" as="geometry" />
        </mxCell>
        <mxCell id="vHGS4qTyj_NM40RGna0Z-155" value="Parenttask-Name" style="whiteSpace=wrap;html=1;rounded=0;shadow=0;labelBackgroundColor=none;strokeWidth=1;fillColor=none;fontFamily=Verdana;fontSize=12;align=center;comic=1;" parent="1" vertex="1">
          <mxGeometry x="3728" y="1250" width="290" height="30" as="geometry" />
        </mxCell>
        <mxCell id="vHGS4qTyj_NM40RGna0Z-156" value="Wollen Sie die oben gezeigte Task löschen?&lt;br&gt;Diese Aktion kann nicht rückgängig gemacht werden!" style="whiteSpace=wrap;html=1;rounded=0;shadow=0;labelBackgroundColor=none;strokeWidth=1;fillColor=none;fontFamily=Verdana;fontSize=12;align=center;comic=1;" parent="1" vertex="1">
          <mxGeometry x="3725" y="1365" width="290" height="120" as="geometry" />
        </mxCell>
        <mxCell id="d6Erp2eyZHGO9Y9gUzmG-2" style="edgeStyle=orthogonalEdgeStyle;rounded=0;orthogonalLoop=1;jettySize=auto;html=1;" edge="1" parent="1" source="vHGS4qTyj_NM40RGna0Z-157" target="vHGS4qTyj_NM40RGna0Z-176">
          <mxGeometry relative="1" as="geometry">
            <Array as="points">
              <mxPoint x="3760" y="1600" />
              <mxPoint x="4755" y="1600" />
            </Array>
          </mxGeometry>
        </mxCell>
        <mxCell id="vHGS4qTyj_NM40RGna0Z-157" value="Ja" style="whiteSpace=wrap;html=1;rounded=0;shadow=0;labelBackgroundColor=none;strokeWidth=1;fillColor=#d5e8d4;fontFamily=Verdana;fontSize=12;align=center;comic=1;strokeColor=#82b366;" parent="1" vertex="1">
          <mxGeometry x="3700" y="1525" width="120" height="40" as="geometry" />
        </mxCell>
        <mxCell id="d6Erp2eyZHGO9Y9gUzmG-4" style="edgeStyle=orthogonalEdgeStyle;rounded=0;orthogonalLoop=1;jettySize=auto;html=1;" edge="1" parent="1" source="vHGS4qTyj_NM40RGna0Z-158" target="UpsgMlH7qFDsBHEWJ_tV-97">
          <mxGeometry relative="1" as="geometry">
            <Array as="points">
              <mxPoint x="4005" y="1640" />
              <mxPoint x="2740" y="1640" />
            </Array>
          </mxGeometry>
        </mxCell>
        <mxCell id="vHGS4qTyj_NM40RGna0Z-158" value="Nein" style="whiteSpace=wrap;html=1;rounded=0;shadow=0;labelBackgroundColor=none;strokeWidth=1;fillColor=#f8cecc;fontFamily=Verdana;fontSize=12;align=center;comic=1;strokeColor=#b85450;" parent="1" vertex="1">
          <mxGeometry x="3945" y="1525" width="120" height="40" as="geometry" />
        </mxCell>
        <mxCell id="vHGS4qTyj_NM40RGna0Z-159" value="Taskname:" style="whiteSpace=wrap;html=1;rounded=0;shadow=0;labelBackgroundColor=none;strokeWidth=1;fillColor=none;fontFamily=Verdana;fontSize=12;align=center;comic=1;" parent="1" vertex="1">
          <mxGeometry x="3390" y="1980" width="160" height="40" as="geometry" />
        </mxCell>
        <mxCell id="vHGS4qTyj_NM40RGna0Z-160" value="Textfeld, enthält den originalen Tasknamen" style="whiteSpace=wrap;html=1;rounded=0;shadow=0;labelBackgroundColor=none;strokeWidth=1;fillColor=none;fontFamily=Verdana;fontSize=12;align=center;comic=1;" parent="1" vertex="1">
          <mxGeometry x="3590" y="1980" width="670" height="40" as="geometry" />
        </mxCell>
        <mxCell id="vHGS4qTyj_NM40RGna0Z-161" value="Startdatum:" style="whiteSpace=wrap;html=1;rounded=0;shadow=0;labelBackgroundColor=none;strokeWidth=1;fillColor=none;fontFamily=Verdana;fontSize=12;align=center;comic=1;" parent="1" vertex="1">
          <mxGeometry x="3390" y="2050" width="160" height="40" as="geometry" />
        </mxCell>
        <mxCell id="vHGS4qTyj_NM40RGna0Z-162" value="Enddatum:" style="whiteSpace=wrap;html=1;rounded=0;shadow=0;labelBackgroundColor=none;strokeWidth=1;fillColor=none;fontFamily=Verdana;fontSize=12;align=center;comic=1;" parent="1" vertex="1">
          <mxGeometry x="3390" y="2120" width="160" height="40" as="geometry" />
        </mxCell>
        <mxCell id="vHGS4qTyj_NM40RGna0Z-163" value="Zuweisen:" style="whiteSpace=wrap;html=1;rounded=0;shadow=0;labelBackgroundColor=none;strokeWidth=1;fillColor=none;fontFamily=Verdana;fontSize=12;align=center;comic=1;" parent="1" vertex="1">
          <mxGeometry x="3390" y="2185" width="160" height="40" as="geometry" />
        </mxCell>
        <mxCell id="vHGS4qTyj_NM40RGna0Z-164" value="Taskbeschreibung:" style="whiteSpace=wrap;html=1;rounded=0;shadow=0;labelBackgroundColor=none;strokeWidth=1;fillColor=none;fontFamily=Verdana;fontSize=12;align=center;comic=1;" parent="1" vertex="1">
          <mxGeometry x="3390" y="2245" width="160" height="40" as="geometry" />
        </mxCell>
        <mxCell id="vHGS4qTyj_NM40RGna0Z-165" value="Parenttask-Name:" style="whiteSpace=wrap;html=1;rounded=0;shadow=0;labelBackgroundColor=none;strokeWidth=1;fillColor=none;fontFamily=Verdana;fontSize=12;align=center;comic=1;" parent="1" vertex="1">
          <mxGeometry x="3390" y="2490" width="160" height="40" as="geometry" />
        </mxCell>
        <mxCell id="vHGS4qTyj_NM40RGna0Z-166" value="Subtask-Name:" style="whiteSpace=wrap;html=1;rounded=0;shadow=0;labelBackgroundColor=none;strokeWidth=1;fillColor=none;fontFamily=Verdana;fontSize=12;align=center;comic=1;" parent="1" vertex="1">
          <mxGeometry x="3390" y="2560" width="160" height="40" as="geometry" />
        </mxCell>
        <mxCell id="vHGS4qTyj_NM40RGna0Z-167" value="Textfeld, enthält das originale Startdatum" style="whiteSpace=wrap;html=1;rounded=0;shadow=0;labelBackgroundColor=none;strokeWidth=1;fillColor=none;fontFamily=Verdana;fontSize=12;align=center;comic=1;" parent="1" vertex="1">
          <mxGeometry x="3590" y="2050" width="670" height="40" as="geometry" />
        </mxCell>
        <mxCell id="vHGS4qTyj_NM40RGna0Z-168" value="Textfeld, enthält das originale Enddatum" style="whiteSpace=wrap;html=1;rounded=0;shadow=0;labelBackgroundColor=none;strokeWidth=1;fillColor=none;fontFamily=Verdana;fontSize=12;align=center;comic=1;" parent="1" vertex="1">
          <mxGeometry x="3590" y="2120" width="670" height="40" as="geometry" />
        </mxCell>
        <mxCell id="vHGS4qTyj_NM40RGna0Z-169" value="Dropdown mit allen Personen" style="whiteSpace=wrap;html=1;rounded=0;shadow=0;labelBackgroundColor=none;strokeWidth=1;fillColor=none;fontFamily=Verdana;fontSize=12;align=center;comic=1;" parent="1" vertex="1">
          <mxGeometry x="3590" y="2185" width="670" height="40" as="geometry" />
        </mxCell>
        <mxCell id="vHGS4qTyj_NM40RGna0Z-170" value="Textfeld, enthält die originale Beschreibung" style="whiteSpace=wrap;html=1;rounded=0;shadow=0;labelBackgroundColor=none;strokeWidth=1;fillColor=none;fontFamily=Verdana;fontSize=12;align=center;comic=1;" parent="1" vertex="1">
          <mxGeometry x="3590" y="2245" width="670" height="215" as="geometry" />
        </mxCell>
        <mxCell id="vHGS4qTyj_NM40RGna0Z-171" value="Dropdown mit allen möglichen Pranttask, kann nichts sein" style="whiteSpace=wrap;html=1;rounded=0;shadow=0;labelBackgroundColor=none;strokeWidth=1;fillColor=none;fontFamily=Verdana;fontSize=12;align=center;comic=1;" parent="1" vertex="1">
          <mxGeometry x="3590" y="2490" width="670" height="40" as="geometry" />
        </mxCell>
        <mxCell id="vHGS4qTyj_NM40RGna0Z-172" value="Dropdown mit allen möglichen Subtask, kann Nichts sein" style="whiteSpace=wrap;html=1;rounded=0;shadow=0;labelBackgroundColor=none;strokeWidth=1;fillColor=none;fontFamily=Verdana;fontSize=12;align=center;comic=1;" parent="1" vertex="1">
          <mxGeometry x="3590" y="2560" width="670" height="40" as="geometry" />
        </mxCell>
        <mxCell id="vHGS4qTyj_NM40RGna0Z-173" value="Soll die nächsten Tasks, auf der Seite, laden und dann anzeigen" style="text;html=1;align=center;verticalAlign=middle;whiteSpace=wrap;rounded=0;" parent="1" vertex="1">
          <mxGeometry x="3080" y="1230" width="100" height="80" as="geometry" />
        </mxCell>
        <mxCell id="d6Erp2eyZHGO9Y9gUzmG-3" style="edgeStyle=orthogonalEdgeStyle;rounded=0;orthogonalLoop=1;jettySize=auto;html=1;" edge="1" parent="1" source="vHGS4qTyj_NM40RGna0Z-176" target="UpsgMlH7qFDsBHEWJ_tV-97">
          <mxGeometry relative="1" as="geometry">
            <Array as="points">
              <mxPoint x="4755" y="1750" />
              <mxPoint x="2740" y="1750" />
            </Array>
          </mxGeometry>
        </mxCell>
        <mxCell id="d6Erp2eyZHGO9Y9gUzmG-5" style="edgeStyle=orthogonalEdgeStyle;rounded=0;orthogonalLoop=1;jettySize=auto;html=1;" edge="1" parent="1" source="vHGS4qTyj_NM40RGna0Z-176" target="UpsgMlH7qFDsBHEWJ_tV-97">
          <mxGeometry relative="1" as="geometry">
            <Array as="points">
              <mxPoint x="4755" y="880" />
              <mxPoint x="2740" y="880" />
            </Array>
          </mxGeometry>
        </mxCell>
        <mxCell id="vHGS4qTyj_NM40RGna0Z-176" value="Projekt wurde erfolgreich gelöscht" style="whiteSpace=wrap;html=1;rounded=0;shadow=0;labelBackgroundColor=none;strokeColor=#000000;strokeWidth=1;fillColor=none;fontFamily=Verdana;fontSize=12;fontColor=#000000;align=center;comic=1;" parent="1" vertex="1">
          <mxGeometry x="4540" y="1210" width="430" height="240" as="geometry" />
        </mxCell>
        <mxCell id="vHGS4qTyj_NM40RGna0Z-177" value="PopUp" style="text;html=1;align=center;verticalAlign=middle;whiteSpace=wrap;rounded=0;fontStyle=1;fontSize=21;" parent="1" vertex="1">
          <mxGeometry x="4665" y="1170" width="180" height="40" as="geometry" />
        </mxCell>
        <mxCell id="vHGS4qTyj_NM40RGna0Z-178" value="OK" style="whiteSpace=wrap;html=1;rounded=0;shadow=0;labelBackgroundColor=none;strokeWidth=1;fillColor=none;fontFamily=Verdana;fontSize=12;align=center;comic=1;" parent="1" vertex="1">
          <mxGeometry x="4712.5" y="1390" width="85" height="30" as="geometry" />
        </mxCell>
        <mxCell id="d6Erp2eyZHGO9Y9gUzmG-1" style="edgeStyle=orthogonalEdgeStyle;rounded=0;orthogonalLoop=1;jettySize=auto;html=1;" edge="1" parent="1" source="vHGS4qTyj_NM40RGna0Z-179" target="UpsgMlH7qFDsBHEWJ_tV-97">
          <mxGeometry relative="1" as="geometry">
            <Array as="points">
              <mxPoint x="4530" y="2250" />
              <mxPoint x="4530" y="1780" />
              <mxPoint x="2730" y="1780" />
            </Array>
          </mxGeometry>
        </mxCell>
        <mxCell id="vHGS4qTyj_NM40RGna0Z-179" value="Task wurde erfolgreich verändert" style="whiteSpace=wrap;html=1;rounded=0;shadow=0;labelBackgroundColor=none;strokeColor=#000000;strokeWidth=1;fillColor=none;fontFamily=Verdana;fontSize=12;fontColor=#000000;align=center;comic=1;" parent="1" vertex="1">
          <mxGeometry x="4550" y="2130" width="430" height="240" as="geometry" />
        </mxCell>
        <mxCell id="vHGS4qTyj_NM40RGna0Z-180" value="PopUp" style="text;html=1;align=center;verticalAlign=middle;whiteSpace=wrap;rounded=0;fontStyle=1;fontSize=21;" parent="1" vertex="1">
          <mxGeometry x="4675" y="2090" width="180" height="40" as="geometry" />
        </mxCell>
        <mxCell id="vHGS4qTyj_NM40RGna0Z-181" value="OK" style="whiteSpace=wrap;html=1;rounded=0;shadow=0;labelBackgroundColor=none;strokeWidth=1;fillColor=none;fontFamily=Verdana;fontSize=12;align=center;comic=1;" parent="1" vertex="1">
          <mxGeometry x="4722.5" y="2310" width="85" height="30" as="geometry" />
        </mxCell>
        <mxCell id="vHGS4qTyj_NM40RGna0Z-190" style="edgeStyle=orthogonalEdgeStyle;rounded=0;orthogonalLoop=1;jettySize=auto;html=1;" parent="1" source="vHGS4qTyj_NM40RGna0Z-188" target="vHGS4qTyj_NM40RGna0Z-179" edge="1">
          <mxGeometry relative="1" as="geometry">
            <Array as="points">
              <mxPoint x="3470" y="2700" />
              <mxPoint x="4765" y="2700" />
            </Array>
          </mxGeometry>
        </mxCell>
        <mxCell id="vHGS4qTyj_NM40RGna0Z-188" value="Update Task" style="whiteSpace=wrap;html=1;rounded=0;shadow=0;labelBackgroundColor=none;strokeWidth=1;fillColor=none;fontFamily=Verdana;fontSize=12;align=center;comic=1;" parent="1" vertex="1">
          <mxGeometry x="3427.5" y="2610" width="85" height="30" as="geometry" />
        </mxCell>
        <mxCell id="vHGS4qTyj_NM40RGna0Z-191" style="edgeStyle=orthogonalEdgeStyle;rounded=0;orthogonalLoop=1;jettySize=auto;html=1;" parent="1" source="vHGS4qTyj_NM40RGna0Z-189" target="UpsgMlH7qFDsBHEWJ_tV-97" edge="1">
          <mxGeometry relative="1" as="geometry">
            <Array as="points">
              <mxPoint x="4218" y="2720" />
              <mxPoint x="2730" y="2720" />
            </Array>
          </mxGeometry>
        </mxCell>
        <mxCell id="vHGS4qTyj_NM40RGna0Z-189" value="Cancel" style="whiteSpace=wrap;html=1;rounded=0;shadow=0;labelBackgroundColor=none;strokeWidth=1;fillColor=none;fontFamily=Verdana;fontSize=12;align=center;comic=1;" parent="1" vertex="1">
          <mxGeometry x="4175" y="2610" width="85" height="30" as="geometry" />
        </mxCell>
      </root>
    </mxGraphModel>
  </diagram>
</mxfile>
